ISO-10303-21;
HEADER;
/* Generated by software containing ST-Developer
 * from STEP Tools, Inc. (www.steptools.com) 
 */

FILE_DESCRIPTION(
/* description */ (''),
/* implementation_level */ '2;1');

FILE_NAME(
/* name */ 'Card 2.stp',
/* time_stamp */ '2026-05-17T09:47:24+07:00',
/* author */ ('quang'),
/* organization */ (''),
/* preprocessor_version */ 'ST-DEVELOPER v20',
/* originating_system */ 'Autodesk Inventor 2024',
/* authorisation */ '');

FILE_SCHEMA (('AUTOMOTIVE_DESIGN { 1 0 10303 214 3 1 1 }'));
ENDSEC;

DATA;
#10=MECHANICAL_DESIGN_GEOMETRIC_PRESENTATION_REPRESENTATION('',(#646,#647,
#648,#649,#650,#651,#652,#653,#654,#655,#656,#657,#658,#659,#660,#661,#662,
#663,#664,#665,#666,#667,#668,#669,#670,#671,#672,#673,#674,#675,#676,#677,
#678,#679,#680,#681,#682,#683,#684,#685,#686,#687,#688),#1256);
#11=SHAPE_REPRESENTATION_RELATIONSHIP('SRR','None',#1263,#12);
#12=ADVANCED_BREP_SHAPE_REPRESENTATION('',(#13),#1255);
#13=MANIFOLD_SOLID_BREP('Solid1',#731);
#14=FACE_BOUND('',#95,.T.);
#15=FACE_BOUND('',#96,.T.);
#16=FACE_BOUND('',#97,.T.);
#17=FACE_BOUND('',#103,.T.);
#18=FACE_BOUND('',#104,.T.);
#19=FACE_BOUND('',#105,.T.);
#20=FACE_BOUND('',#106,.T.);
#21=FACE_BOUND('',#130,.T.);
#22=PLANE('',#768);
#23=PLANE('',#769);
#24=PLANE('',#787);
#25=PLANE('',#797);
#26=PLANE('',#800);
#27=PLANE('',#801);
#28=PLANE('',#802);
#29=PLANE('',#805);
#30=PLANE('',#808);
#31=PLANE('',#811);
#32=PLANE('',#814);
#33=PLANE('',#815);
#34=PLANE('',#816);
#35=PLANE('',#819);
#36=PLANE('',#822);
#37=PLANE('',#828);
#38=PLANE('',#829);
#39=PLANE('',#831);
#40=PLANE('',#833);
#41=PLANE('',#835);
#42=TOROIDAL_SURFACE('',#757,6.,1.);
#43=TOROIDAL_SURFACE('',#763,15.,1.);
#44=TOROIDAL_SURFACE('',#776,15.,1.);
#45=TOROIDAL_SURFACE('',#782,6.,1.);
#46=FACE_OUTER_BOUND('',#88,.T.);
#47=FACE_OUTER_BOUND('',#89,.T.);
#48=FACE_OUTER_BOUND('',#90,.T.);
#49=FACE_OUTER_BOUND('',#91,.T.);
#50=FACE_OUTER_BOUND('',#92,.T.);
#51=FACE_OUTER_BOUND('',#93,.T.);
#52=FACE_OUTER_BOUND('',#94,.T.);
#53=FACE_OUTER_BOUND('',#98,.T.);
#54=FACE_OUTER_BOUND('',#99,.T.);
#55=FACE_OUTER_BOUND('',#100,.T.);
#56=FACE_OUTER_BOUND('',#101,.T.);
#57=FACE_OUTER_BOUND('',#102,.T.);
#58=FACE_OUTER_BOUND('',#107,.T.);
#59=FACE_OUTER_BOUND('',#108,.T.);
#60=FACE_OUTER_BOUND('',#109,.T.);
#61=FACE_OUTER_BOUND('',#110,.T.);
#62=FACE_OUTER_BOUND('',#111,.T.);
#63=FACE_OUTER_BOUND('',#112,.T.);
#64=FACE_OUTER_BOUND('',#113,.T.);
#65=FACE_OUTER_BOUND('',#114,.T.);
#66=FACE_OUTER_BOUND('',#115,.T.);
#67=FACE_OUTER_BOUND('',#116,.T.);
#68=FACE_OUTER_BOUND('',#117,.T.);
#69=FACE_OUTER_BOUND('',#118,.T.);
#70=FACE_OUTER_BOUND('',#119,.T.);
#71=FACE_OUTER_BOUND('',#120,.T.);
#72=FACE_OUTER_BOUND('',#121,.T.);
#73=FACE_OUTER_BOUND('',#122,.T.);
#74=FACE_OUTER_BOUND('',#123,.T.);
#75=FACE_OUTER_BOUND('',#124,.T.);
#76=FACE_OUTER_BOUND('',#125,.T.);
#77=FACE_OUTER_BOUND('',#126,.T.);
#78=FACE_OUTER_BOUND('',#127,.T.);
#79=FACE_OUTER_BOUND('',#128,.T.);
#80=FACE_OUTER_BOUND('',#129,.T.);
#81=FACE_OUTER_BOUND('',#131,.T.);
#82=FACE_OUTER_BOUND('',#132,.T.);
#83=FACE_OUTER_BOUND('',#133,.T.);
#84=FACE_OUTER_BOUND('',#134,.T.);
#85=FACE_OUTER_BOUND('',#135,.T.);
#86=FACE_OUTER_BOUND('',#136,.T.);
#87=FACE_OUTER_BOUND('',#137,.T.);
#88=EDGE_LOOP('',(#440,#441,#442,#443));
#89=EDGE_LOOP('',(#444,#445,#446,#447));
#90=EDGE_LOOP('',(#448,#449,#450,#451));
#91=EDGE_LOOP('',(#452,#453,#454,#455));
#92=EDGE_LOOP('',(#456,#457,#458,#459));
#93=EDGE_LOOP('',(#460,#461,#462,#463));
#94=EDGE_LOOP('',(#464,#465,#466,#467));
#95=EDGE_LOOP('',(#468,#469,#470,#471));
#96=EDGE_LOOP('',(#472,#473,#474,#475));
#97=EDGE_LOOP('',(#476,#477,#478,#479));
#98=EDGE_LOOP('',(#480,#481,#482,#483));
#99=EDGE_LOOP('',(#484,#485,#486,#487));
#100=EDGE_LOOP('',(#488,#489,#490,#491));
#101=EDGE_LOOP('',(#492,#493,#494,#495));
#102=EDGE_LOOP('',(#496,#497,#498,#499));
#103=EDGE_LOOP('',(#500));
#104=EDGE_LOOP('',(#501,#502,#503,#504));
#105=EDGE_LOOP('',(#505,#506,#507,#508));
#106=EDGE_LOOP('',(#509,#510,#511,#512));
#107=EDGE_LOOP('',(#513,#514,#515,#516));
#108=EDGE_LOOP('',(#517,#518,#519,#520));
#109=EDGE_LOOP('',(#521,#522,#523,#524));
#110=EDGE_LOOP('',(#525,#526,#527,#528));
#111=EDGE_LOOP('',(#529,#530,#531,#532));
#112=EDGE_LOOP('',(#533,#534,#535,#536));
#113=EDGE_LOOP('',(#537,#538,#539,#540));
#114=EDGE_LOOP('',(#541,#542,#543,#544));
#115=EDGE_LOOP('',(#545,#546,#547,#548));
#116=EDGE_LOOP('',(#549,#550,#551,#552));
#117=EDGE_LOOP('',(#553,#554,#555,#556));
#118=EDGE_LOOP('',(#557,#558,#559,#560));
#119=EDGE_LOOP('',(#561,#562,#563,#564));
#120=EDGE_LOOP('',(#565,#566,#567,#568));
#121=EDGE_LOOP('',(#569,#570,#571,#572));
#122=EDGE_LOOP('',(#573,#574,#575,#576));
#123=EDGE_LOOP('',(#577,#578,#579,#580));
#124=EDGE_LOOP('',(#581,#582,#583,#584));
#125=EDGE_LOOP('',(#585,#586,#587,#588));
#126=EDGE_LOOP('',(#589,#590,#591,#592));
#127=EDGE_LOOP('',(#593,#594,#595,#596));
#128=EDGE_LOOP('',(#597,#598,#599,#600));
#129=EDGE_LOOP('',(#601));
#130=EDGE_LOOP('',(#602));
#131=EDGE_LOOP('',(#603,#604,#605,#606));
#132=EDGE_LOOP('',(#607,#608,#609,#610));
#133=EDGE_LOOP('',(#611,#612,#613,#614));
#134=EDGE_LOOP('',(#615,#616,#617,#618));
#135=EDGE_LOOP('',(#619,#620,#621,#622));
#136=EDGE_LOOP('',(#623,#624,#625,#626));
#137=EDGE_LOOP('',(#627));
#138=LINE('',#1062,#192);
#139=LINE('',#1065,#193);
#140=LINE('',#1076,#194);
#141=LINE('',#1077,#195);
#142=LINE('',#1083,#196);
#143=LINE('',#1086,#197);
#144=LINE('',#1089,#198);
#145=LINE('',#1090,#199);
#146=LINE('',#1096,#200);
#147=LINE('',#1099,#201);
#148=LINE('',#1102,#202);
#149=LINE('',#1106,#203);
#150=LINE('',#1112,#204);
#151=LINE('',#1115,#205);
#152=LINE('',#1125,#206);
#153=LINE('',#1133,#207);
#154=LINE('',#1134,#208);
#155=LINE('',#1142,#209);
#156=LINE('',#1145,#210);
#157=LINE('',#1148,#211);
#158=LINE('',#1152,#212);
#159=LINE('',#1158,#213);
#160=LINE('',#1161,#214);
#161=LINE('',#1164,#215);
#162=LINE('',#1167,#216);
#163=LINE('',#1170,#217);
#164=LINE('',#1171,#218);
#165=LINE('',#1175,#219);
#166=LINE('',#1177,#220);
#167=LINE('',#1181,#221);
#168=LINE('',#1183,#222);
#169=LINE('',#1184,#223);
#170=LINE('',#1188,#224);
#171=LINE('',#1191,#225);
#172=LINE('',#1192,#226);
#173=LINE('',#1198,#227);
#174=LINE('',#1201,#228);
#175=LINE('',#1204,#229);
#176=LINE('',#1205,#230);
#177=LINE('',#1208,#231);
#178=LINE('',#1211,#232);
#179=LINE('',#1215,#233);
#180=LINE('',#1217,#234);
#181=LINE('',#1218,#235);
#182=LINE('',#1221,#236);
#183=LINE('',#1225,#237);
#184=LINE('',#1226,#238);
#185=LINE('',#1234,#239);
#186=LINE('',#1238,#240);
#187=LINE('',#1242,#241);
#188=LINE('',#1243,#242);
#189=LINE('',#1245,#243);
#190=LINE('',#1247,#244);
#191=LINE('',#1250,#245);
#192=VECTOR('',#842,10.);
#193=VECTOR('',#845,10.);
#194=VECTOR('',#858,10.);
#195=VECTOR('',#859,10.);
#196=VECTOR('',#868,10.);
#197=VECTOR('',#871,10.);
#198=VECTOR('',#874,10.);
#199=VECTOR('',#875,10.);
#200=VECTOR('',#880,10.);
#201=VECTOR('',#883,10.);
#202=VECTOR('',#884,10.);
#203=VECTOR('',#887,10.);
#204=VECTOR('',#892,10.);
#205=VECTOR('',#895,10.);
#206=VECTOR('',#908,10.);
#207=VECTOR('',#919,10.);
#208=VECTOR('',#920,10.);
#209=VECTOR('',#927,10.);
#210=VECTOR('',#930,10.);
#211=VECTOR('',#931,10.);
#212=VECTOR('',#934,10.);
#213=VECTOR('',#939,10.);
#214=VECTOR('',#942,10.);
#215=VECTOR('',#945,10.);
#216=VECTOR('',#948,10.);
#217=VECTOR('',#951,10.);
#218=VECTOR('',#952,10.);
#219=VECTOR('',#957,10.);
#220=VECTOR('',#960,10.);
#221=VECTOR('',#965,10.);
#222=VECTOR('',#966,10.);
#223=VECTOR('',#967,10.);
#224=VECTOR('',#972,10.);
#225=VECTOR('',#975,10.);
#226=VECTOR('',#976,10.);
#227=VECTOR('',#985,10.);
#228=VECTOR('',#988,10.);
#229=VECTOR('',#991,10.);
#230=VECTOR('',#992,10.);
#231=VECTOR('',#995,10.);
#232=VECTOR('',#1000,10.);
#233=VECTOR('',#1005,10.);
#234=VECTOR('',#1006,10.);
#235=VECTOR('',#1007,10.);
#236=VECTOR('',#1010,10.);
#237=VECTOR('',#1015,10.);
#238=VECTOR('',#1016,10.);
#239=VECTOR('',#1027,11.95);
#240=VECTOR('',#1032,12.75);
#241=VECTOR('',#1039,10.);
#242=VECTOR('',#1040,10.);
#243=VECTOR('',#1043,10.);
#244=VECTOR('',#1046,10.);
#245=VECTOR('',#1051,10.);
#246=CIRCLE('',#755,1.);
#247=CIRCLE('',#756,1.);
#248=CIRCLE('',#758,1.);
#249=CIRCLE('',#759,7.);
#250=CIRCLE('',#760,6.);
#251=CIRCLE('',#762,1.);
#252=CIRCLE('',#764,16.);
#253=CIRCLE('',#765,15.);
#254=CIRCLE('',#767,16.);
#255=CIRCLE('',#770,1.5);
#256=CIRCLE('',#771,1.5);
#257=CIRCLE('',#772,1.);
#258=CIRCLE('',#773,1.);
#259=CIRCLE('',#774,1.);
#260=CIRCLE('',#775,1.);
#261=CIRCLE('',#777,1.);
#262=CIRCLE('',#778,1.00000000000001);
#263=CIRCLE('',#779,15.);
#264=CIRCLE('',#781,1.);
#265=CIRCLE('',#783,1.);
#266=CIRCLE('',#784,6.);
#267=CIRCLE('',#785,7.);
#268=CIRCLE('',#788,12.75);
#269=CIRCLE('',#789,1.5);
#270=CIRCLE('',#790,1.5);
#271=CIRCLE('',#791,1.);
#272=CIRCLE('',#792,1.);
#273=CIRCLE('',#793,1.);
#274=CIRCLE('',#794,1.);
#275=CIRCLE('',#796,1.);
#276=CIRCLE('',#799,1.);
#277=CIRCLE('',#804,1.);
#278=CIRCLE('',#807,1.);
#279=CIRCLE('',#810,1.);
#280=CIRCLE('',#813,1.);
#281=CIRCLE('',#818,1.);
#282=CIRCLE('',#821,1.);
#283=CIRCLE('',#824,11.95);
#284=CIRCLE('',#825,11.95);
#285=CIRCLE('',#827,12.75);
#286=VERTEX_POINT('',#1058);
#287=VERTEX_POINT('',#1059);
#288=VERTEX_POINT('',#1061);
#289=VERTEX_POINT('',#1063);
#290=VERTEX_POINT('',#1067);
#291=VERTEX_POINT('',#1068);
#292=VERTEX_POINT('',#1073);
#293=VERTEX_POINT('',#1074);
#294=VERTEX_POINT('',#1082);
#295=VERTEX_POINT('',#1084);
#296=VERTEX_POINT('',#1088);
#297=VERTEX_POINT('',#1092);
#298=VERTEX_POINT('',#1093);
#299=VERTEX_POINT('',#1095);
#300=VERTEX_POINT('',#1097);
#301=VERTEX_POINT('',#1100);
#302=VERTEX_POINT('',#1101);
#303=VERTEX_POINT('',#1103);
#304=VERTEX_POINT('',#1105);
#305=VERTEX_POINT('',#1108);
#306=VERTEX_POINT('',#1109);
#307=VERTEX_POINT('',#1111);
#308=VERTEX_POINT('',#1113);
#309=VERTEX_POINT('',#1117);
#310=VERTEX_POINT('',#1119);
#311=VERTEX_POINT('',#1123);
#312=VERTEX_POINT('',#1127);
#313=VERTEX_POINT('',#1128);
#314=VERTEX_POINT('',#1136);
#315=VERTEX_POINT('',#1138);
#316=VERTEX_POINT('',#1139);
#317=VERTEX_POINT('',#1141);
#318=VERTEX_POINT('',#1143);
#319=VERTEX_POINT('',#1146);
#320=VERTEX_POINT('',#1147);
#321=VERTEX_POINT('',#1149);
#322=VERTEX_POINT('',#1151);
#323=VERTEX_POINT('',#1154);
#324=VERTEX_POINT('',#1155);
#325=VERTEX_POINT('',#1157);
#326=VERTEX_POINT('',#1159);
#327=VERTEX_POINT('',#1163);
#328=VERTEX_POINT('',#1165);
#329=VERTEX_POINT('',#1169);
#330=VERTEX_POINT('',#1173);
#331=VERTEX_POINT('',#1180);
#332=VERTEX_POINT('',#1182);
#333=VERTEX_POINT('',#1186);
#334=VERTEX_POINT('',#1190);
#335=VERTEX_POINT('',#1197);
#336=VERTEX_POINT('',#1199);
#337=VERTEX_POINT('',#1203);
#338=VERTEX_POINT('',#1207);
#339=VERTEX_POINT('',#1214);
#340=VERTEX_POINT('',#1216);
#341=VERTEX_POINT('',#1220);
#342=VERTEX_POINT('',#1224);
#343=VERTEX_POINT('',#1231);
#344=VERTEX_POINT('',#1233);
#345=VERTEX_POINT('',#1237);
#346=EDGE_CURVE('',#286,#287,#246,.T.);
#347=EDGE_CURVE('',#287,#288,#138,.T.);
#348=EDGE_CURVE('',#288,#289,#247,.T.);
#349=EDGE_CURVE('',#289,#286,#139,.T.);
#350=EDGE_CURVE('',#290,#291,#248,.T.);
#351=EDGE_CURVE('',#291,#289,#249,.T.);
#352=EDGE_CURVE('',#288,#290,#250,.T.);
#353=EDGE_CURVE('',#292,#293,#251,.T.);
#354=EDGE_CURVE('',#293,#291,#140,.T.);
#355=EDGE_CURVE('',#290,#292,#141,.T.);
#356=EDGE_CURVE('',#286,#293,#252,.T.);
#357=EDGE_CURVE('',#292,#287,#253,.T.);
#358=EDGE_CURVE('',#286,#294,#142,.T.);
#359=EDGE_CURVE('',#295,#294,#254,.T.);
#360=EDGE_CURVE('',#293,#295,#143,.T.);
#361=EDGE_CURVE('',#289,#296,#144,.T.);
#362=EDGE_CURVE('',#294,#296,#145,.T.);
#363=EDGE_CURVE('',#297,#298,#255,.T.);
#364=EDGE_CURVE('',#299,#297,#146,.T.);
#365=EDGE_CURVE('',#300,#299,#256,.T.);
#366=EDGE_CURVE('',#298,#300,#147,.T.);
#367=EDGE_CURVE('',#301,#302,#148,.T.);
#368=EDGE_CURVE('',#302,#303,#257,.T.);
#369=EDGE_CURVE('',#303,#304,#149,.T.);
#370=EDGE_CURVE('',#304,#301,#258,.T.);
#371=EDGE_CURVE('',#305,#306,#259,.T.);
#372=EDGE_CURVE('',#306,#307,#150,.T.);
#373=EDGE_CURVE('',#307,#308,#260,.T.);
#374=EDGE_CURVE('',#308,#305,#151,.T.);
#375=EDGE_CURVE('',#309,#295,#261,.T.);
#376=EDGE_CURVE('',#294,#310,#262,.T.);
#377=EDGE_CURVE('',#310,#309,#263,.T.);
#378=EDGE_CURVE('',#296,#311,#264,.T.);
#379=EDGE_CURVE('',#311,#310,#152,.T.);
#380=EDGE_CURVE('',#312,#313,#265,.T.);
#381=EDGE_CURVE('',#313,#311,#266,.T.);
#382=EDGE_CURVE('',#296,#312,#267,.T.);
#383=EDGE_CURVE('',#309,#313,#153,.T.);
#384=EDGE_CURVE('',#312,#295,#154,.T.);
#385=EDGE_CURVE('',#314,#314,#268,.T.);
#386=EDGE_CURVE('',#315,#316,#269,.T.);
#387=EDGE_CURVE('',#316,#317,#155,.T.);
#388=EDGE_CURVE('',#317,#318,#270,.T.);
#389=EDGE_CURVE('',#318,#315,#156,.T.);
#390=EDGE_CURVE('',#319,#320,#157,.T.);
#391=EDGE_CURVE('',#320,#321,#271,.T.);
#392=EDGE_CURVE('',#321,#322,#158,.T.);
#393=EDGE_CURVE('',#322,#319,#272,.T.);
#394=EDGE_CURVE('',#323,#324,#273,.T.);
#395=EDGE_CURVE('',#324,#325,#159,.T.);
#396=EDGE_CURVE('',#325,#326,#274,.T.);
#397=EDGE_CURVE('',#326,#323,#160,.T.);
#398=EDGE_CURVE('',#305,#327,#161,.T.);
#399=EDGE_CURVE('',#328,#327,#275,.T.);
#400=EDGE_CURVE('',#306,#328,#162,.T.);
#401=EDGE_CURVE('',#329,#328,#163,.T.);
#402=EDGE_CURVE('',#307,#329,#164,.T.);
#403=EDGE_CURVE('',#330,#329,#276,.T.);
#404=EDGE_CURVE('',#308,#330,#165,.T.);
#405=EDGE_CURVE('',#327,#330,#166,.T.);
#406=EDGE_CURVE('',#301,#331,#167,.T.);
#407=EDGE_CURVE('',#332,#331,#168,.T.);
#408=EDGE_CURVE('',#302,#332,#169,.T.);
#409=EDGE_CURVE('',#333,#332,#277,.T.);
#410=EDGE_CURVE('',#303,#333,#170,.T.);
#411=EDGE_CURVE('',#334,#333,#171,.T.);
#412=EDGE_CURVE('',#304,#334,#172,.T.);
#413=EDGE_CURVE('',#331,#334,#278,.T.);
#414=EDGE_CURVE('',#323,#335,#173,.T.);
#415=EDGE_CURVE('',#335,#336,#279,.T.);
#416=EDGE_CURVE('',#324,#336,#174,.T.);
#417=EDGE_CURVE('',#326,#337,#175,.T.);
#418=EDGE_CURVE('',#337,#335,#176,.T.);
#419=EDGE_CURVE('',#325,#338,#177,.T.);
#420=EDGE_CURVE('',#338,#337,#280,.T.);
#421=EDGE_CURVE('',#336,#338,#178,.T.);
#422=EDGE_CURVE('',#319,#339,#179,.T.);
#423=EDGE_CURVE('',#339,#340,#180,.T.);
#424=EDGE_CURVE('',#320,#340,#181,.T.);
#425=EDGE_CURVE('',#322,#341,#182,.T.);
#426=EDGE_CURVE('',#341,#339,#281,.T.);
#427=EDGE_CURVE('',#321,#342,#183,.T.);
#428=EDGE_CURVE('',#342,#341,#184,.T.);
#429=EDGE_CURVE('',#340,#342,#282,.T.);
#430=EDGE_CURVE('',#343,#343,#283,.T.);
#431=EDGE_CURVE('',#343,#344,#185,.T.);
#432=EDGE_CURVE('',#344,#344,#284,.T.);
#433=EDGE_CURVE('',#314,#345,#186,.T.);
#434=EDGE_CURVE('',#345,#345,#285,.T.);
#435=EDGE_CURVE('',#297,#315,#187,.T.);
#436=EDGE_CURVE('',#299,#318,#188,.T.);
#437=EDGE_CURVE('',#300,#317,#189,.T.);
#438=EDGE_CURVE('',#298,#316,#190,.T.);
#439=EDGE_CURVE('',#291,#312,#191,.T.);
#440=ORIENTED_EDGE('',*,*,#346,.T.);
#441=ORIENTED_EDGE('',*,*,#347,.T.);
#442=ORIENTED_EDGE('',*,*,#348,.T.);
#443=ORIENTED_EDGE('',*,*,#349,.T.);
#444=ORIENTED_EDGE('',*,*,#350,.T.);
#445=ORIENTED_EDGE('',*,*,#351,.T.);
#446=ORIENTED_EDGE('',*,*,#348,.F.);
#447=ORIENTED_EDGE('',*,*,#352,.T.);
#448=ORIENTED_EDGE('',*,*,#353,.T.);
#449=ORIENTED_EDGE('',*,*,#354,.T.);
#450=ORIENTED_EDGE('',*,*,#350,.F.);
#451=ORIENTED_EDGE('',*,*,#355,.T.);
#452=ORIENTED_EDGE('',*,*,#346,.F.);
#453=ORIENTED_EDGE('',*,*,#356,.T.);
#454=ORIENTED_EDGE('',*,*,#353,.F.);
#455=ORIENTED_EDGE('',*,*,#357,.T.);
#456=ORIENTED_EDGE('',*,*,#356,.F.);
#457=ORIENTED_EDGE('',*,*,#358,.T.);
#458=ORIENTED_EDGE('',*,*,#359,.F.);
#459=ORIENTED_EDGE('',*,*,#360,.F.);
#460=ORIENTED_EDGE('',*,*,#349,.F.);
#461=ORIENTED_EDGE('',*,*,#361,.T.);
#462=ORIENTED_EDGE('',*,*,#362,.F.);
#463=ORIENTED_EDGE('',*,*,#358,.F.);
#464=ORIENTED_EDGE('',*,*,#347,.F.);
#465=ORIENTED_EDGE('',*,*,#357,.F.);
#466=ORIENTED_EDGE('',*,*,#355,.F.);
#467=ORIENTED_EDGE('',*,*,#352,.F.);
#468=ORIENTED_EDGE('',*,*,#363,.F.);
#469=ORIENTED_EDGE('',*,*,#364,.F.);
#470=ORIENTED_EDGE('',*,*,#365,.F.);
#471=ORIENTED_EDGE('',*,*,#366,.F.);
#472=ORIENTED_EDGE('',*,*,#367,.T.);
#473=ORIENTED_EDGE('',*,*,#368,.T.);
#474=ORIENTED_EDGE('',*,*,#369,.T.);
#475=ORIENTED_EDGE('',*,*,#370,.T.);
#476=ORIENTED_EDGE('',*,*,#371,.T.);
#477=ORIENTED_EDGE('',*,*,#372,.T.);
#478=ORIENTED_EDGE('',*,*,#373,.T.);
#479=ORIENTED_EDGE('',*,*,#374,.T.);
#480=ORIENTED_EDGE('',*,*,#375,.T.);
#481=ORIENTED_EDGE('',*,*,#359,.T.);
#482=ORIENTED_EDGE('',*,*,#376,.T.);
#483=ORIENTED_EDGE('',*,*,#377,.T.);
#484=ORIENTED_EDGE('',*,*,#378,.T.);
#485=ORIENTED_EDGE('',*,*,#379,.T.);
#486=ORIENTED_EDGE('',*,*,#376,.F.);
#487=ORIENTED_EDGE('',*,*,#362,.T.);
#488=ORIENTED_EDGE('',*,*,#380,.T.);
#489=ORIENTED_EDGE('',*,*,#381,.T.);
#490=ORIENTED_EDGE('',*,*,#378,.F.);
#491=ORIENTED_EDGE('',*,*,#382,.T.);
#492=ORIENTED_EDGE('',*,*,#375,.F.);
#493=ORIENTED_EDGE('',*,*,#383,.T.);
#494=ORIENTED_EDGE('',*,*,#380,.F.);
#495=ORIENTED_EDGE('',*,*,#384,.T.);
#496=ORIENTED_EDGE('',*,*,#377,.F.);
#497=ORIENTED_EDGE('',*,*,#379,.F.);
#498=ORIENTED_EDGE('',*,*,#381,.F.);
#499=ORIENTED_EDGE('',*,*,#383,.F.);
#500=ORIENTED_EDGE('',*,*,#385,.T.);
#501=ORIENTED_EDGE('',*,*,#386,.T.);
#502=ORIENTED_EDGE('',*,*,#387,.T.);
#503=ORIENTED_EDGE('',*,*,#388,.T.);
#504=ORIENTED_EDGE('',*,*,#389,.T.);
#505=ORIENTED_EDGE('',*,*,#390,.T.);
#506=ORIENTED_EDGE('',*,*,#391,.T.);
#507=ORIENTED_EDGE('',*,*,#392,.T.);
#508=ORIENTED_EDGE('',*,*,#393,.T.);
#509=ORIENTED_EDGE('',*,*,#394,.T.);
#510=ORIENTED_EDGE('',*,*,#395,.T.);
#511=ORIENTED_EDGE('',*,*,#396,.T.);
#512=ORIENTED_EDGE('',*,*,#397,.T.);
#513=ORIENTED_EDGE('',*,*,#371,.F.);
#514=ORIENTED_EDGE('',*,*,#398,.T.);
#515=ORIENTED_EDGE('',*,*,#399,.F.);
#516=ORIENTED_EDGE('',*,*,#400,.F.);
#517=ORIENTED_EDGE('',*,*,#372,.F.);
#518=ORIENTED_EDGE('',*,*,#400,.T.);
#519=ORIENTED_EDGE('',*,*,#401,.F.);
#520=ORIENTED_EDGE('',*,*,#402,.F.);
#521=ORIENTED_EDGE('',*,*,#373,.F.);
#522=ORIENTED_EDGE('',*,*,#402,.T.);
#523=ORIENTED_EDGE('',*,*,#403,.F.);
#524=ORIENTED_EDGE('',*,*,#404,.F.);
#525=ORIENTED_EDGE('',*,*,#374,.F.);
#526=ORIENTED_EDGE('',*,*,#404,.T.);
#527=ORIENTED_EDGE('',*,*,#405,.F.);
#528=ORIENTED_EDGE('',*,*,#398,.F.);
#529=ORIENTED_EDGE('',*,*,#405,.T.);
#530=ORIENTED_EDGE('',*,*,#403,.T.);
#531=ORIENTED_EDGE('',*,*,#401,.T.);
#532=ORIENTED_EDGE('',*,*,#399,.T.);
#533=ORIENTED_EDGE('',*,*,#367,.F.);
#534=ORIENTED_EDGE('',*,*,#406,.T.);
#535=ORIENTED_EDGE('',*,*,#407,.F.);
#536=ORIENTED_EDGE('',*,*,#408,.F.);
#537=ORIENTED_EDGE('',*,*,#368,.F.);
#538=ORIENTED_EDGE('',*,*,#408,.T.);
#539=ORIENTED_EDGE('',*,*,#409,.F.);
#540=ORIENTED_EDGE('',*,*,#410,.F.);
#541=ORIENTED_EDGE('',*,*,#369,.F.);
#542=ORIENTED_EDGE('',*,*,#410,.T.);
#543=ORIENTED_EDGE('',*,*,#411,.F.);
#544=ORIENTED_EDGE('',*,*,#412,.F.);
#545=ORIENTED_EDGE('',*,*,#370,.F.);
#546=ORIENTED_EDGE('',*,*,#412,.T.);
#547=ORIENTED_EDGE('',*,*,#413,.F.);
#548=ORIENTED_EDGE('',*,*,#406,.F.);
#549=ORIENTED_EDGE('',*,*,#413,.T.);
#550=ORIENTED_EDGE('',*,*,#411,.T.);
#551=ORIENTED_EDGE('',*,*,#409,.T.);
#552=ORIENTED_EDGE('',*,*,#407,.T.);
#553=ORIENTED_EDGE('',*,*,#394,.F.);
#554=ORIENTED_EDGE('',*,*,#414,.T.);
#555=ORIENTED_EDGE('',*,*,#415,.T.);
#556=ORIENTED_EDGE('',*,*,#416,.F.);
#557=ORIENTED_EDGE('',*,*,#397,.F.);
#558=ORIENTED_EDGE('',*,*,#417,.T.);
#559=ORIENTED_EDGE('',*,*,#418,.T.);
#560=ORIENTED_EDGE('',*,*,#414,.F.);
#561=ORIENTED_EDGE('',*,*,#396,.F.);
#562=ORIENTED_EDGE('',*,*,#419,.T.);
#563=ORIENTED_EDGE('',*,*,#420,.T.);
#564=ORIENTED_EDGE('',*,*,#417,.F.);
#565=ORIENTED_EDGE('',*,*,#395,.F.);
#566=ORIENTED_EDGE('',*,*,#416,.T.);
#567=ORIENTED_EDGE('',*,*,#421,.T.);
#568=ORIENTED_EDGE('',*,*,#419,.F.);
#569=ORIENTED_EDGE('',*,*,#421,.F.);
#570=ORIENTED_EDGE('',*,*,#415,.F.);
#571=ORIENTED_EDGE('',*,*,#418,.F.);
#572=ORIENTED_EDGE('',*,*,#420,.F.);
#573=ORIENTED_EDGE('',*,*,#390,.F.);
#574=ORIENTED_EDGE('',*,*,#422,.T.);
#575=ORIENTED_EDGE('',*,*,#423,.T.);
#576=ORIENTED_EDGE('',*,*,#424,.F.);
#577=ORIENTED_EDGE('',*,*,#393,.F.);
#578=ORIENTED_EDGE('',*,*,#425,.T.);
#579=ORIENTED_EDGE('',*,*,#426,.T.);
#580=ORIENTED_EDGE('',*,*,#422,.F.);
#581=ORIENTED_EDGE('',*,*,#392,.F.);
#582=ORIENTED_EDGE('',*,*,#427,.T.);
#583=ORIENTED_EDGE('',*,*,#428,.T.);
#584=ORIENTED_EDGE('',*,*,#425,.F.);
#585=ORIENTED_EDGE('',*,*,#391,.F.);
#586=ORIENTED_EDGE('',*,*,#424,.T.);
#587=ORIENTED_EDGE('',*,*,#429,.T.);
#588=ORIENTED_EDGE('',*,*,#427,.F.);
#589=ORIENTED_EDGE('',*,*,#429,.F.);
#590=ORIENTED_EDGE('',*,*,#423,.F.);
#591=ORIENTED_EDGE('',*,*,#426,.F.);
#592=ORIENTED_EDGE('',*,*,#428,.F.);
#593=ORIENTED_EDGE('',*,*,#430,.F.);
#594=ORIENTED_EDGE('',*,*,#431,.T.);
#595=ORIENTED_EDGE('',*,*,#432,.T.);
#596=ORIENTED_EDGE('',*,*,#431,.F.);
#597=ORIENTED_EDGE('',*,*,#385,.F.);
#598=ORIENTED_EDGE('',*,*,#433,.T.);
#599=ORIENTED_EDGE('',*,*,#434,.T.);
#600=ORIENTED_EDGE('',*,*,#433,.F.);
#601=ORIENTED_EDGE('',*,*,#434,.F.);
#602=ORIENTED_EDGE('',*,*,#432,.F.);
#603=ORIENTED_EDGE('',*,*,#364,.T.);
#604=ORIENTED_EDGE('',*,*,#435,.T.);
#605=ORIENTED_EDGE('',*,*,#389,.F.);
#606=ORIENTED_EDGE('',*,*,#436,.F.);
#607=ORIENTED_EDGE('',*,*,#365,.T.);
#608=ORIENTED_EDGE('',*,*,#436,.T.);
#609=ORIENTED_EDGE('',*,*,#388,.F.);
#610=ORIENTED_EDGE('',*,*,#437,.F.);
#611=ORIENTED_EDGE('',*,*,#366,.T.);
#612=ORIENTED_EDGE('',*,*,#437,.T.);
#613=ORIENTED_EDGE('',*,*,#387,.F.);
#614=ORIENTED_EDGE('',*,*,#438,.F.);
#615=ORIENTED_EDGE('',*,*,#363,.T.);
#616=ORIENTED_EDGE('',*,*,#438,.T.);
#617=ORIENTED_EDGE('',*,*,#386,.F.);
#618=ORIENTED_EDGE('',*,*,#435,.F.);
#619=ORIENTED_EDGE('',*,*,#354,.F.);
#620=ORIENTED_EDGE('',*,*,#360,.T.);
#621=ORIENTED_EDGE('',*,*,#384,.F.);
#622=ORIENTED_EDGE('',*,*,#439,.F.);
#623=ORIENTED_EDGE('',*,*,#351,.F.);
#624=ORIENTED_EDGE('',*,*,#439,.T.);
#625=ORIENTED_EDGE('',*,*,#382,.F.);
#626=ORIENTED_EDGE('',*,*,#361,.F.);
#627=ORIENTED_EDGE('',*,*,#430,.T.);
#628=CYLINDRICAL_SURFACE('',#754,1.);
#629=CYLINDRICAL_SURFACE('',#761,1.);
#630=CYLINDRICAL_SURFACE('',#766,16.);
#631=CYLINDRICAL_SURFACE('',#780,1.);
#632=CYLINDRICAL_SURFACE('',#786,1.);
#633=CYLINDRICAL_SURFACE('',#795,1.);
#634=CYLINDRICAL_SURFACE('',#798,1.);
#635=CYLINDRICAL_SURFACE('',#803,1.);
#636=CYLINDRICAL_SURFACE('',#806,1.);
#637=CYLINDRICAL_SURFACE('',#809,1.);
#638=CYLINDRICAL_SURFACE('',#812,1.);
#639=CYLINDRICAL_SURFACE('',#817,1.);
#640=CYLINDRICAL_SURFACE('',#820,1.);
#641=CYLINDRICAL_SURFACE('',#823,11.95);
#642=CYLINDRICAL_SURFACE('',#826,12.75);
#643=CYLINDRICAL_SURFACE('',#830,1.5);
#644=CYLINDRICAL_SURFACE('',#832,1.5);
#645=CYLINDRICAL_SURFACE('',#834,7.);
#646=STYLED_ITEM('',(#1273),#689);
#647=STYLED_ITEM('',(#1273),#690);
#648=STYLED_ITEM('',(#1273),#691);
#649=STYLED_ITEM('',(#1273),#692);
#650=STYLED_ITEM('',(#1273),#693);
#651=STYLED_ITEM('',(#1273),#694);
#652=STYLED_ITEM('',(#1273),#695);
#653=STYLED_ITEM('',(#1273),#696);
#654=STYLED_ITEM('',(#1273),#697);
#655=STYLED_ITEM('',(#1273),#698);
#656=STYLED_ITEM('',(#1273),#699);
#657=STYLED_ITEM('',(#1273),#700);
#658=STYLED_ITEM('',(#1273),#701);
#659=STYLED_ITEM('',(#1273),#702);
#660=STYLED_ITEM('',(#1273),#703);
#661=STYLED_ITEM('',(#1273),#704);
#662=STYLED_ITEM('',(#1273),#705);
#663=STYLED_ITEM('',(#1273),#706);
#664=STYLED_ITEM('',(#1273),#707);
#665=STYLED_ITEM('',(#1273),#708);
#666=STYLED_ITEM('',(#1273),#709);
#667=STYLED_ITEM('',(#1273),#710);
#668=STYLED_ITEM('',(#1273),#711);
#669=STYLED_ITEM('',(#1273),#712);
#670=STYLED_ITEM('',(#1273),#713);
#671=STYLED_ITEM('',(#1273),#714);
#672=STYLED_ITEM('',(#1273),#715);
#673=STYLED_ITEM('',(#1273),#716);
#674=STYLED_ITEM('',(#1273),#717);
#675=STYLED_ITEM('',(#1273),#718);
#676=STYLED_ITEM('',(#1273),#719);
#677=STYLED_ITEM('',(#1273),#720);
#678=STYLED_ITEM('',(#1273),#721);
#679=STYLED_ITEM('',(#1273),#722);
#680=STYLED_ITEM('',(#1273),#723);
#681=STYLED_ITEM('',(#1273),#724);
#682=STYLED_ITEM('',(#1273),#725);
#683=STYLED_ITEM('',(#1273),#726);
#684=STYLED_ITEM('',(#1273),#727);
#685=STYLED_ITEM('',(#1273),#728);
#686=STYLED_ITEM('',(#1273),#729);
#687=STYLED_ITEM('',(#1273),#730);
#688=STYLED_ITEM('',(#1272),#13);
#689=ADVANCED_FACE('',(#46),#628,.T.);
#690=ADVANCED_FACE('',(#47),#42,.T.);
#691=ADVANCED_FACE('',(#48),#629,.T.);
#692=ADVANCED_FACE('',(#49),#43,.T.);
#693=ADVANCED_FACE('',(#50),#630,.T.);
#694=ADVANCED_FACE('',(#51),#22,.T.);
#695=ADVANCED_FACE('',(#52,#14,#15,#16),#23,.F.);
#696=ADVANCED_FACE('',(#53),#44,.T.);
#697=ADVANCED_FACE('',(#54),#631,.T.);
#698=ADVANCED_FACE('',(#55),#45,.T.);
#699=ADVANCED_FACE('',(#56),#632,.T.);
#700=ADVANCED_FACE('',(#57,#17,#18,#19,#20),#24,.T.);
#701=ADVANCED_FACE('',(#58),#633,.F.);
#702=ADVANCED_FACE('',(#59),#25,.T.);
#703=ADVANCED_FACE('',(#60),#634,.F.);
#704=ADVANCED_FACE('',(#61),#26,.T.);
#705=ADVANCED_FACE('',(#62),#27,.F.);
#706=ADVANCED_FACE('',(#63),#28,.T.);
#707=ADVANCED_FACE('',(#64),#635,.F.);
#708=ADVANCED_FACE('',(#65),#29,.T.);
#709=ADVANCED_FACE('',(#66),#636,.F.);
#710=ADVANCED_FACE('',(#67),#30,.F.);
#711=ADVANCED_FACE('',(#68),#637,.F.);
#712=ADVANCED_FACE('',(#69),#31,.F.);
#713=ADVANCED_FACE('',(#70),#638,.F.);
#714=ADVANCED_FACE('',(#71),#32,.F.);
#715=ADVANCED_FACE('',(#72),#33,.T.);
#716=ADVANCED_FACE('',(#73),#34,.F.);
#717=ADVANCED_FACE('',(#74),#639,.F.);
#718=ADVANCED_FACE('',(#75),#35,.F.);
#719=ADVANCED_FACE('',(#76),#640,.F.);
#720=ADVANCED_FACE('',(#77),#36,.T.);
#721=ADVANCED_FACE('',(#78),#641,.T.);
#722=ADVANCED_FACE('',(#79),#642,.F.);
#723=ADVANCED_FACE('',(#80,#21),#37,.T.);
#724=ADVANCED_FACE('',(#81),#38,.T.);
#725=ADVANCED_FACE('',(#82),#643,.F.);
#726=ADVANCED_FACE('',(#83),#39,.T.);
#727=ADVANCED_FACE('',(#84),#644,.F.);
#728=ADVANCED_FACE('',(#85),#40,.T.);
#729=ADVANCED_FACE('',(#86),#645,.T.);
#730=ADVANCED_FACE('',(#87),#41,.T.);
#731=CLOSED_SHELL('',(#689,#690,#691,#692,#693,#694,#695,#696,#697,#698,
#699,#700,#701,#702,#703,#704,#705,#706,#707,#708,#709,#710,#711,#712,#713,
#714,#715,#716,#717,#718,#719,#720,#721,#722,#723,#724,#725,#726,#727,#728,
#729,#730));
#732=DERIVED_UNIT_ELEMENT(#735,1.);
#733=DERIVED_UNIT_ELEMENT(#1258,-3.);
#734=DIMENSIONAL_EXPONENTS(0.,1.,0.,0.,0.,0.,0.);
#735=(
CONVERSION_BASED_UNIT('gram',#737)
MASS_UNIT()
NAMED_UNIT(#734)
);
#736=(
MASS_UNIT()
NAMED_UNIT(*)
SI_UNIT(.KILO.,.GRAM.)
);
#737=MASS_MEASURE_WITH_UNIT(MASS_MEASURE(0.001),#736);
#738=DERIVED_UNIT((#732,#733));
#739=MEASURE_REPRESENTATION_ITEM('density measure',
POSITIVE_RATIO_MEASURE(1.),#738);
#740=PROPERTY_DEFINITION_REPRESENTATION(#745,#742);
#741=PROPERTY_DEFINITION_REPRESENTATION(#746,#743);
#742=REPRESENTATION('material name',(#744),#1255);
#743=REPRESENTATION('density',(#739),#1255);
#744=DESCRIPTIVE_REPRESENTATION_ITEM('Generic','Generic');
#745=PROPERTY_DEFINITION('material property','material name',#1265);
#746=PROPERTY_DEFINITION('material property','density of part',#1265);
#747=DATE_TIME_ROLE('creation_date');
#748=APPLIED_DATE_AND_TIME_ASSIGNMENT(#749,#747,(#1265));
#749=DATE_AND_TIME(#750,#751);
#750=CALENDAR_DATE(2026,13,5);
#751=LOCAL_TIME(0,0,0.,#752);
#752=COORDINATED_UNIVERSAL_TIME_OFFSET(0,0,.BEHIND.);
#753=AXIS2_PLACEMENT_3D('',#1056,#836,#837);
#754=AXIS2_PLACEMENT_3D('',#1057,#838,#839);
#755=AXIS2_PLACEMENT_3D('',#1060,#840,#841);
#756=AXIS2_PLACEMENT_3D('',#1064,#843,#844);
#757=AXIS2_PLACEMENT_3D('',#1066,#846,#847);
#758=AXIS2_PLACEMENT_3D('',#1069,#848,#849);
#759=AXIS2_PLACEMENT_3D('',#1070,#850,#851);
#760=AXIS2_PLACEMENT_3D('',#1071,#852,#853);
#761=AXIS2_PLACEMENT_3D('',#1072,#854,#855);
#762=AXIS2_PLACEMENT_3D('',#1075,#856,#857);
#763=AXIS2_PLACEMENT_3D('',#1078,#860,#861);
#764=AXIS2_PLACEMENT_3D('',#1079,#862,#863);
#765=AXIS2_PLACEMENT_3D('',#1080,#864,#865);
#766=AXIS2_PLACEMENT_3D('',#1081,#866,#867);
#767=AXIS2_PLACEMENT_3D('',#1085,#869,#870);
#768=AXIS2_PLACEMENT_3D('',#1087,#872,#873);
#769=AXIS2_PLACEMENT_3D('',#1091,#876,#877);
#770=AXIS2_PLACEMENT_3D('',#1094,#878,#879);
#771=AXIS2_PLACEMENT_3D('',#1098,#881,#882);
#772=AXIS2_PLACEMENT_3D('',#1104,#885,#886);
#773=AXIS2_PLACEMENT_3D('',#1107,#888,#889);
#774=AXIS2_PLACEMENT_3D('',#1110,#890,#891);
#775=AXIS2_PLACEMENT_3D('',#1114,#893,#894);
#776=AXIS2_PLACEMENT_3D('',#1116,#896,#897);
#777=AXIS2_PLACEMENT_3D('',#1118,#898,#899);
#778=AXIS2_PLACEMENT_3D('',#1120,#900,#901);
#779=AXIS2_PLACEMENT_3D('',#1121,#902,#903);
#780=AXIS2_PLACEMENT_3D('',#1122,#904,#905);
#781=AXIS2_PLACEMENT_3D('',#1124,#906,#907);
#782=AXIS2_PLACEMENT_3D('',#1126,#909,#910);
#783=AXIS2_PLACEMENT_3D('',#1129,#911,#912);
#784=AXIS2_PLACEMENT_3D('',#1130,#913,#914);
#785=AXIS2_PLACEMENT_3D('',#1131,#915,#916);
#786=AXIS2_PLACEMENT_3D('',#1132,#917,#918);
#787=AXIS2_PLACEMENT_3D('',#1135,#921,#922);
#788=AXIS2_PLACEMENT_3D('',#1137,#923,#924);
#789=AXIS2_PLACEMENT_3D('',#1140,#925,#926);
#790=AXIS2_PLACEMENT_3D('',#1144,#928,#929);
#791=AXIS2_PLACEMENT_3D('',#1150,#932,#933);
#792=AXIS2_PLACEMENT_3D('',#1153,#935,#936);
#793=AXIS2_PLACEMENT_3D('',#1156,#937,#938);
#794=AXIS2_PLACEMENT_3D('',#1160,#940,#941);
#795=AXIS2_PLACEMENT_3D('',#1162,#943,#944);
#796=AXIS2_PLACEMENT_3D('',#1166,#946,#947);
#797=AXIS2_PLACEMENT_3D('',#1168,#949,#950);
#798=AXIS2_PLACEMENT_3D('',#1172,#953,#954);
#799=AXIS2_PLACEMENT_3D('',#1174,#955,#956);
#800=AXIS2_PLACEMENT_3D('',#1176,#958,#959);
#801=AXIS2_PLACEMENT_3D('',#1178,#961,#962);
#802=AXIS2_PLACEMENT_3D('',#1179,#963,#964);
#803=AXIS2_PLACEMENT_3D('',#1185,#968,#969);
#804=AXIS2_PLACEMENT_3D('',#1187,#970,#971);
#805=AXIS2_PLACEMENT_3D('',#1189,#973,#974);
#806=AXIS2_PLACEMENT_3D('',#1193,#977,#978);
#807=AXIS2_PLACEMENT_3D('',#1194,#979,#980);
#808=AXIS2_PLACEMENT_3D('',#1195,#981,#982);
#809=AXIS2_PLACEMENT_3D('',#1196,#983,#984);
#810=AXIS2_PLACEMENT_3D('',#1200,#986,#987);
#811=AXIS2_PLACEMENT_3D('',#1202,#989,#990);
#812=AXIS2_PLACEMENT_3D('',#1206,#993,#994);
#813=AXIS2_PLACEMENT_3D('',#1209,#996,#997);
#814=AXIS2_PLACEMENT_3D('',#1210,#998,#999);
#815=AXIS2_PLACEMENT_3D('',#1212,#1001,#1002);
#816=AXIS2_PLACEMENT_3D('',#1213,#1003,#1004);
#817=AXIS2_PLACEMENT_3D('',#1219,#1008,#1009);
#818=AXIS2_PLACEMENT_3D('',#1222,#1011,#1012);
#819=AXIS2_PLACEMENT_3D('',#1223,#1013,#1014);
#820=AXIS2_PLACEMENT_3D('',#1227,#1017,#1018);
#821=AXIS2_PLACEMENT_3D('',#1228,#1019,#1020);
#822=AXIS2_PLACEMENT_3D('',#1229,#1021,#1022);
#823=AXIS2_PLACEMENT_3D('',#1230,#1023,#1024);
#824=AXIS2_PLACEMENT_3D('',#1232,#1025,#1026);
#825=AXIS2_PLACEMENT_3D('',#1235,#1028,#1029);
#826=AXIS2_PLACEMENT_3D('',#1236,#1030,#1031);
#827=AXIS2_PLACEMENT_3D('',#1239,#1033,#1034);
#828=AXIS2_PLACEMENT_3D('',#1240,#1035,#1036);
#829=AXIS2_PLACEMENT_3D('',#1241,#1037,#1038);
#830=AXIS2_PLACEMENT_3D('',#1244,#1041,#1042);
#831=AXIS2_PLACEMENT_3D('',#1246,#1044,#1045);
#832=AXIS2_PLACEMENT_3D('',#1248,#1047,#1048);
#833=AXIS2_PLACEMENT_3D('',#1249,#1049,#1050);
#834=AXIS2_PLACEMENT_3D('',#1251,#1052,#1053);
#835=AXIS2_PLACEMENT_3D('',#1252,#1054,#1055);
#836=DIRECTION('axis',(0.,0.,1.));
#837=DIRECTION('refdir',(1.,0.,0.));
#838=DIRECTION('center_axis',(-0.880694764772711,0.,0.473684210526316));
#839=DIRECTION('ref_axis',(-0.334945317404154,-0.707106781186548,-0.622745240326275));
#840=DIRECTION('center_axis',(-0.880694764772711,0.,0.473684210526316));
#841=DIRECTION('ref_axis',(-0.473684210526316,0.,-0.880694764772711));
#842=DIRECTION('',(-0.880694764772711,0.,0.473684210526316));
#843=DIRECTION('center_axis',(0.880694764772712,0.,-0.473684210526315));
#844=DIRECTION('ref_axis',(0.,-1.,0.));
#845=DIRECTION('',(0.880694764772711,0.,-0.473684210526316));
#846=DIRECTION('center_axis',(0.,1.,0.));
#847=DIRECTION('ref_axis',(0.,0.,1.));
#848=DIRECTION('center_axis',(-0.88069476477271,0.,-0.473684210526317));
#849=DIRECTION('ref_axis',(0.,-1.,0.));
#850=DIRECTION('center_axis',(0.,-1.,0.));
#851=DIRECTION('ref_axis',(-1.,0.,0.));
#852=DIRECTION('center_axis',(0.,1.,0.));
#853=DIRECTION('ref_axis',(-1.,0.,0.));
#854=DIRECTION('center_axis',(0.880694764772711,0.,0.473684210526316));
#855=DIRECTION('ref_axis',(-0.334945317404154,-0.707106781186548,0.622745240326275));
#856=DIRECTION('center_axis',(-0.880694764772711,0.,-0.473684210526317));
#857=DIRECTION('ref_axis',(0.,-1.,0.));
#858=DIRECTION('',(-0.880694764772711,0.,-0.473684210526316));
#859=DIRECTION('',(0.880694764772711,0.,0.473684210526316));
#860=DIRECTION('center_axis',(0.,1.,0.));
#861=DIRECTION('ref_axis',(1.,0.,-1.83697019872103E-16));
#862=DIRECTION('center_axis',(0.,-1.,0.));
#863=DIRECTION('ref_axis',(1.,0.,1.22464679914735E-16));
#864=DIRECTION('center_axis',(0.,1.,0.));
#865=DIRECTION('ref_axis',(1.,0.,1.22464679914735E-16));
#866=DIRECTION('center_axis',(0.,1.,0.));
#867=DIRECTION('ref_axis',(1.,0.,1.22464679914735E-16));
#868=DIRECTION('',(0.,1.,0.));
#869=DIRECTION('center_axis',(0.,1.,0.));
#870=DIRECTION('ref_axis',(1.,0.,1.22464679914735E-16));
#871=DIRECTION('',(0.,1.,0.));
#872=DIRECTION('center_axis',(-0.473684210526316,0.,-0.880694764772711));
#873=DIRECTION('ref_axis',(-0.880694764772711,0.,0.473684210526316));
#874=DIRECTION('',(0.,1.,0.));
#875=DIRECTION('',(-0.880694764772711,0.,0.473684210526316));
#876=DIRECTION('center_axis',(0.,1.,0.));
#877=DIRECTION('ref_axis',(0.,0.,1.));
#878=DIRECTION('center_axis',(0.,-1.,0.));
#879=DIRECTION('ref_axis',(1.,0.,-1.85037170770859E-16));
#880=DIRECTION('',(0.,0.,1.));
#881=DIRECTION('center_axis',(0.,-1.,0.));
#882=DIRECTION('ref_axis',(-1.,0.,0.));
#883=DIRECTION('',(0.,0.,-1.));
#884=DIRECTION('',(-0.880694764772711,0.,-0.473684210526315));
#885=DIRECTION('center_axis',(0.,1.,0.));
#886=DIRECTION('ref_axis',(0.473684210526316,0.,-0.880694764772711));
#887=DIRECTION('',(0.880694764772711,0.,0.473684210526316));
#888=DIRECTION('center_axis',(0.,1.,0.));
#889=DIRECTION('ref_axis',(-0.473684210526316,0.,0.880694764772711));
#890=DIRECTION('center_axis',(0.,1.,0.));
#891=DIRECTION('ref_axis',(-0.473684210526315,0.,-0.880694764772711));
#892=DIRECTION('',(0.880694764772711,0.,-0.473684210526315));
#893=DIRECTION('center_axis',(0.,1.,0.));
#894=DIRECTION('ref_axis',(0.473684210526316,0.,0.880694764772711));
#895=DIRECTION('',(-0.880694764772711,0.,0.473684210526316));
#896=DIRECTION('center_axis',(0.,1.,0.));
#897=DIRECTION('ref_axis',(1.,0.,6.12323399573677E-17));
#898=DIRECTION('center_axis',(0.880694764772711,0.,0.473684210526317));
#899=DIRECTION('ref_axis',(0.,1.,0.));
#900=DIRECTION('center_axis',(0.88069476477271,0.,-0.473684210526318));
#901=DIRECTION('ref_axis',(-0.473684210526318,0.,-0.88069476477271));
#902=DIRECTION('center_axis',(0.,-1.,0.));
#903=DIRECTION('ref_axis',(1.,0.,1.22464679914735E-16));
#904=DIRECTION('center_axis',(-0.880694764772711,0.,0.473684210526316));
#905=DIRECTION('ref_axis',(-0.334945317404154,0.707106781186548,-0.622745240326275));
#906=DIRECTION('center_axis',(0.880694764772711,0.,-0.473684210526315));
#907=DIRECTION('ref_axis',(-0.473684210526315,0.,-0.880694764772711));
#908=DIRECTION('',(0.880694764772711,0.,-0.473684210526316));
#909=DIRECTION('center_axis',(0.,1.,0.));
#910=DIRECTION('ref_axis',(0.,0.,1.));
#911=DIRECTION('center_axis',(-0.88069476477271,0.,-0.473684210526317));
#912=DIRECTION('ref_axis',(-0.473684210526317,0.,0.88069476477271));
#913=DIRECTION('center_axis',(0.,-1.,0.));
#914=DIRECTION('ref_axis',(-1.,0.,0.));
#915=DIRECTION('center_axis',(0.,1.,0.));
#916=DIRECTION('ref_axis',(-1.,0.,0.));
#917=DIRECTION('center_axis',(0.880694764772711,0.,0.473684210526316));
#918=DIRECTION('ref_axis',(-0.334945317404154,0.707106781186548,0.622745240326275));
#919=DIRECTION('',(-0.880694764772711,0.,-0.473684210526316));
#920=DIRECTION('',(0.880694764772711,0.,0.473684210526316));
#921=DIRECTION('center_axis',(0.,1.,0.));
#922=DIRECTION('ref_axis',(0.,0.,1.));
#923=DIRECTION('center_axis',(0.,-1.,0.));
#924=DIRECTION('ref_axis',(1.,0.,0.));
#925=DIRECTION('center_axis',(0.,-1.,0.));
#926=DIRECTION('ref_axis',(1.,0.,-1.85037170770859E-16));
#927=DIRECTION('',(0.,0.,-1.));
#928=DIRECTION('center_axis',(0.,-1.,0.));
#929=DIRECTION('ref_axis',(-1.,0.,0.));
#930=DIRECTION('',(0.,0.,1.));
#931=DIRECTION('',(0.880694764772711,0.,0.473684210526315));
#932=DIRECTION('center_axis',(0.,-1.,0.));
#933=DIRECTION('ref_axis',(-0.473684210526316,0.,0.880694764772711));
#934=DIRECTION('',(-0.880694764772711,0.,-0.473684210526316));
#935=DIRECTION('center_axis',(0.,-1.,0.));
#936=DIRECTION('ref_axis',(0.473684210526316,0.,-0.880694764772711));
#937=DIRECTION('center_axis',(0.,-1.,0.));
#938=DIRECTION('ref_axis',(-0.473684210526315,0.,-0.880694764772711));
#939=DIRECTION('',(0.880694764772711,0.,-0.473684210526316));
#940=DIRECTION('center_axis',(0.,-1.,0.));
#941=DIRECTION('ref_axis',(0.473684210526316,0.,0.880694764772711));
#942=DIRECTION('',(-0.880694764772711,0.,0.473684210526315));
#943=DIRECTION('center_axis',(0.,-1.,0.));
#944=DIRECTION('ref_axis',(-0.473684210526315,0.,-0.880694764772711));
#945=DIRECTION('',(0.,1.,0.));
#946=DIRECTION('center_axis',(0.,-1.,0.));
#947=DIRECTION('ref_axis',(-0.473684210526315,0.,-0.880694764772711));
#948=DIRECTION('',(0.,1.,0.));
#949=DIRECTION('center_axis',(-0.473684210526315,0.,-0.880694764772711));
#950=DIRECTION('ref_axis',(-0.880694764772711,0.,0.473684210526315));
#951=DIRECTION('',(-0.880694764772711,0.,0.473684210526315));
#952=DIRECTION('',(0.,1.,0.));
#953=DIRECTION('center_axis',(0.,-1.,0.));
#954=DIRECTION('ref_axis',(0.473684210526316,0.,0.880694764772711));
#955=DIRECTION('center_axis',(0.,-1.,0.));
#956=DIRECTION('ref_axis',(0.473684210526316,0.,0.880694764772711));
#957=DIRECTION('',(0.,1.,0.));
#958=DIRECTION('center_axis',(0.473684210526316,0.,0.880694764772711));
#959=DIRECTION('ref_axis',(0.880694764772711,0.,-0.473684210526316));
#960=DIRECTION('',(0.880694764772711,0.,-0.473684210526316));
#961=DIRECTION('center_axis',(0.,1.,0.));
#962=DIRECTION('ref_axis',(0.,0.,1.));
#963=DIRECTION('center_axis',(-0.473684210526315,0.,0.880694764772711));
#964=DIRECTION('ref_axis',(0.880694764772711,0.,0.473684210526315));
#965=DIRECTION('',(0.,1.,0.));
#966=DIRECTION('',(0.880694764772711,0.,0.473684210526315));
#967=DIRECTION('',(0.,1.,0.));
#968=DIRECTION('center_axis',(0.,-1.,0.));
#969=DIRECTION('ref_axis',(0.473684210526316,0.,-0.880694764772711));
#970=DIRECTION('center_axis',(0.,-1.,0.));
#971=DIRECTION('ref_axis',(0.473684210526316,0.,-0.880694764772711));
#972=DIRECTION('',(0.,1.,0.));
#973=DIRECTION('center_axis',(0.473684210526316,0.,-0.880694764772711));
#974=DIRECTION('ref_axis',(-0.880694764772711,0.,-0.473684210526316));
#975=DIRECTION('',(-0.880694764772711,0.,-0.473684210526316));
#976=DIRECTION('',(0.,1.,0.));
#977=DIRECTION('center_axis',(0.,-1.,0.));
#978=DIRECTION('ref_axis',(-0.473684210526316,0.,0.880694764772711));
#979=DIRECTION('center_axis',(0.,-1.,0.));
#980=DIRECTION('ref_axis',(-0.473684210526316,0.,0.880694764772711));
#981=DIRECTION('center_axis',(0.,1.,0.));
#982=DIRECTION('ref_axis',(0.,0.,1.));
#983=DIRECTION('center_axis',(0.,-1.,0.));
#984=DIRECTION('ref_axis',(-0.473684210526315,0.,-0.880694764772711));
#985=DIRECTION('',(0.,-1.,0.));
#986=DIRECTION('center_axis',(0.,-1.,0.));
#987=DIRECTION('ref_axis',(-0.473684210526315,0.,-0.880694764772711));
#988=DIRECTION('',(0.,-1.,0.));
#989=DIRECTION('center_axis',(0.473684210526315,0.,0.880694764772711));
#990=DIRECTION('ref_axis',(-0.880694764772711,0.,0.473684210526315));
#991=DIRECTION('',(0.,-1.,0.));
#992=DIRECTION('',(-0.880694764772711,0.,0.473684210526315));
#993=DIRECTION('center_axis',(0.,-1.,0.));
#994=DIRECTION('ref_axis',(0.473684210526316,0.,0.880694764772711));
#995=DIRECTION('',(0.,-1.,0.));
#996=DIRECTION('center_axis',(0.,-1.,0.));
#997=DIRECTION('ref_axis',(0.473684210526316,0.,0.880694764772711));
#998=DIRECTION('center_axis',(-0.473684210526316,0.,-0.880694764772711));
#999=DIRECTION('ref_axis',(0.880694764772711,0.,-0.473684210526316));
#1000=DIRECTION('',(0.880694764772711,0.,-0.473684210526316));
#1001=DIRECTION('center_axis',(0.,1.,0.));
#1002=DIRECTION('ref_axis',(0.,0.,1.));
#1003=DIRECTION('center_axis',(0.473684210526315,0.,-0.880694764772711));
#1004=DIRECTION('ref_axis',(0.880694764772711,0.,0.473684210526315));
#1005=DIRECTION('',(0.,-1.,0.));
#1006=DIRECTION('',(0.880694764772711,0.,0.473684210526315));
#1007=DIRECTION('',(0.,-1.,0.));
#1008=DIRECTION('center_axis',(0.,-1.,0.));
#1009=DIRECTION('ref_axis',(0.473684210526316,0.,-0.880694764772711));
#1010=DIRECTION('',(0.,-1.,0.));
#1011=DIRECTION('center_axis',(0.,-1.,0.));
#1012=DIRECTION('ref_axis',(0.473684210526316,0.,-0.880694764772711));
#1013=DIRECTION('center_axis',(-0.473684210526316,0.,0.880694764772711));
#1014=DIRECTION('ref_axis',(-0.880694764772711,0.,-0.473684210526316));
#1015=DIRECTION('',(0.,-1.,0.));
#1016=DIRECTION('',(-0.880694764772711,0.,-0.473684210526316));
#1017=DIRECTION('center_axis',(0.,-1.,0.));
#1018=DIRECTION('ref_axis',(-0.473684210526316,0.,0.880694764772711));
#1019=DIRECTION('center_axis',(0.,-1.,0.));
#1020=DIRECTION('ref_axis',(-0.473684210526316,0.,0.880694764772711));
#1021=DIRECTION('center_axis',(0.,1.,0.));
#1022=DIRECTION('ref_axis',(0.,0.,1.));
#1023=DIRECTION('center_axis',(0.,-1.,0.));
#1024=DIRECTION('ref_axis',(-1.,0.,0.));
#1025=DIRECTION('center_axis',(0.,1.,0.));
#1026=DIRECTION('ref_axis',(-1.,0.,0.));
#1027=DIRECTION('',(0.,-1.,0.));
#1028=DIRECTION('center_axis',(0.,1.,0.));
#1029=DIRECTION('ref_axis',(-1.,0.,0.));
#1030=DIRECTION('center_axis',(0.,-1.,0.));
#1031=DIRECTION('ref_axis',(1.,0.,0.));
#1032=DIRECTION('',(0.,-1.,0.));
#1033=DIRECTION('center_axis',(0.,-1.,0.));
#1034=DIRECTION('ref_axis',(1.,0.,0.));
#1035=DIRECTION('center_axis',(0.,1.,0.));
#1036=DIRECTION('ref_axis',(0.,0.,1.));
#1037=DIRECTION('center_axis',(-1.,0.,0.));
#1038=DIRECTION('ref_axis',(0.,0.,1.));
#1039=DIRECTION('',(0.,1.,0.));
#1040=DIRECTION('',(0.,1.,0.));
#1041=DIRECTION('center_axis',(0.,1.,0.));
#1042=DIRECTION('ref_axis',(-1.,0.,0.));
#1043=DIRECTION('',(0.,1.,0.));
#1044=DIRECTION('center_axis',(1.,0.,0.));
#1045=DIRECTION('ref_axis',(0.,0.,-1.));
#1046=DIRECTION('',(0.,1.,0.));
#1047=DIRECTION('center_axis',(0.,1.,0.));
#1048=DIRECTION('ref_axis',(1.,0.,-1.85037170770859E-16));
#1049=DIRECTION('center_axis',(-0.473684210526316,0.,0.880694764772711));
#1050=DIRECTION('ref_axis',(0.880694764772711,0.,0.473684210526316));
#1051=DIRECTION('',(0.,1.,0.));
#1052=DIRECTION('center_axis',(0.,1.,0.));
#1053=DIRECTION('ref_axis',(-1.,0.,0.));
#1054=DIRECTION('center_axis',(0.,1.,0.));
#1055=DIRECTION('ref_axis',(0.,0.,1.));
#1056=CARTESIAN_POINT('',(0.,0.,0.));
#1057=CARTESIAN_POINT('Origin',(-9.04432132963989,1.,-12.1674934606756));
#1058=CARTESIAN_POINT('',(-7.57894736842106,1.,-14.0911162363634));
#1059=CARTESIAN_POINT('',(-7.10526315789474,0.,-13.2104214715907));
#1060=CARTESIAN_POINT('Origin',(-7.10526315789474,1.,-13.2104214715907));
#1061=CARTESIAN_POINT('',(-21.8421052631579,0.,-5.28416858863627));
#1062=CARTESIAN_POINT('',(-9.04432132963989,0.,-12.1674934606756));
#1063=CARTESIAN_POINT('',(-22.3157894736842,1.,-6.16486335340898));
#1064=CARTESIAN_POINT('Origin',(-21.8421052631579,1.,-5.28416858863627));
#1065=CARTESIAN_POINT('',(-9.51800554016621,1.,-13.0481882254483));
#1066=CARTESIAN_POINT('Origin',(-19.,1.,0.));
#1067=CARTESIAN_POINT('',(-21.8421052631579,0.,5.28416858863627));
#1068=CARTESIAN_POINT('',(-22.3157894736842,1.,6.16486335340898));
#1069=CARTESIAN_POINT('Origin',(-21.8421052631579,1.,5.28416858863627));
#1070=CARTESIAN_POINT('Origin',(-19.,1.,0.));
#1071=CARTESIAN_POINT('Origin',(-19.,0.,0.));
#1072=CARTESIAN_POINT('Origin',(-16.4127423822715,1.,8.20436701919842));
#1073=CARTESIAN_POINT('',(-7.10526315789474,0.,13.2104214715907));
#1074=CARTESIAN_POINT('',(-7.57894736842106,1.,14.0911162363634));
#1075=CARTESIAN_POINT('Origin',(-7.10526315789474,1.,13.2104214715907));
#1076=CARTESIAN_POINT('',(-16.8864265927978,1.,9.08506178397113));
#1077=CARTESIAN_POINT('',(-16.4127423822715,0.,8.20436701919842));
#1078=CARTESIAN_POINT('Origin',(0.,1.,0.));
#1079=CARTESIAN_POINT('Origin',(0.,1.,0.));
#1080=CARTESIAN_POINT('Origin',(0.,0.,0.));
#1081=CARTESIAN_POINT('Origin',(0.,0.,0.));
#1082=CARTESIAN_POINT('',(-7.57894736842106,2.8,-14.0911162363634));
#1083=CARTESIAN_POINT('',(-7.57894736842106,0.,-14.0911162363634));
#1084=CARTESIAN_POINT('',(-7.57894736842106,2.8,14.0911162363634));
#1085=CARTESIAN_POINT('Origin',(0.,2.8,0.));
#1086=CARTESIAN_POINT('',(-7.57894736842106,0.,14.0911162363634));
#1087=CARTESIAN_POINT('Origin',(-7.57894736842106,0.,-14.0911162363634));
#1088=CARTESIAN_POINT('',(-22.3157894736842,2.8,-6.16486335340898));
#1089=CARTESIAN_POINT('',(-22.3157894736842,0.,-6.16486335340898));
#1090=CARTESIAN_POINT('',(-9.51800554016621,2.8,-13.0481882254483));
#1091=CARTESIAN_POINT('Origin',(-5.,0.,0.));
#1092=CARTESIAN_POINT('',(-17.5,0.,2.));
#1093=CARTESIAN_POINT('',(-20.5,0.,2.));
#1094=CARTESIAN_POINT('Origin',(-19.,0.,2.));
#1095=CARTESIAN_POINT('',(-17.5,0.,-2.));
#1096=CARTESIAN_POINT('',(-17.5,0.,-2.));
#1097=CARTESIAN_POINT('',(-20.5,0.,-2.));
#1098=CARTESIAN_POINT('Origin',(-19.,0.,-2.));
#1099=CARTESIAN_POINT('',(-20.5,0.,2.));
#1100=CARTESIAN_POINT('',(-13.2052736423146,0.,5.61473802019524));
#1101=CARTESIAN_POINT('',(-15.8473579366328,0.,4.1936853886163));
#1102=CARTESIAN_POINT('',(-12.5153687190089,0.,5.98580536612028));
#1103=CARTESIAN_POINT('',(-16.7947263576854,0.,5.95507491816172));
#1104=CARTESIAN_POINT('Origin',(-16.3210421471591,0.,5.074380153389));
#1105=CARTESIAN_POINT('',(-14.1526420633673,0.,7.37612754974067));
#1106=CARTESIAN_POINT('',(-12.1416949929025,0.,8.45772121145518));
#1107=CARTESIAN_POINT('Origin',(-13.6789578528409,0.,6.49543278496795));
#1108=CARTESIAN_POINT('',(-16.7947263576854,0.,-5.95507491816172));
#1109=CARTESIAN_POINT('',(-15.8473579366328,0.,-4.1936853886163));
#1110=CARTESIAN_POINT('Origin',(-16.3210421471591,0.,-5.074380153389));
#1111=CARTESIAN_POINT('',(-13.2052736423146,0.,-5.61473802019524));
#1112=CARTESIAN_POINT('',(-11.1943265718498,0.,-6.69633168190976));
#1113=CARTESIAN_POINT('',(-14.1526420633673,0.,-7.37612754974067));
#1114=CARTESIAN_POINT('Origin',(-13.6789578528409,0.,-6.49543278496795));
#1115=CARTESIAN_POINT('',(-13.4627371400615,0.,-7.74719489566571));
#1116=CARTESIAN_POINT('Origin',(0.,2.8,0.));
#1117=CARTESIAN_POINT('',(-7.10526315789474,3.8,13.2104214715907));
#1118=CARTESIAN_POINT('Origin',(-7.10526315789474,2.8,13.2104214715907));
#1119=CARTESIAN_POINT('',(-7.10526315789473,3.8,-13.2104214715907));
#1120=CARTESIAN_POINT('Origin',(-7.10526315789473,2.8,-13.2104214715907));
#1121=CARTESIAN_POINT('Origin',(0.,3.8,0.));
#1122=CARTESIAN_POINT('Origin',(-9.04432132963989,2.8,-12.1674934606756));
#1123=CARTESIAN_POINT('',(-21.8421052631579,3.8,-5.28416858863627));
#1124=CARTESIAN_POINT('Origin',(-21.8421052631579,2.8,-5.28416858863627));
#1125=CARTESIAN_POINT('',(-9.04432132963989,3.8,-12.1674934606756));
#1126=CARTESIAN_POINT('Origin',(-19.,2.8,0.));
#1127=CARTESIAN_POINT('',(-22.3157894736842,2.8,6.16486335340898));
#1128=CARTESIAN_POINT('',(-21.8421052631579,3.8,5.28416858863627));
#1129=CARTESIAN_POINT('Origin',(-21.8421052631579,2.8,5.28416858863627));
#1130=CARTESIAN_POINT('Origin',(-19.,3.8,0.));
#1131=CARTESIAN_POINT('Origin',(-19.,2.8,0.));
#1132=CARTESIAN_POINT('Origin',(-16.4127423822715,2.8,8.20436701919842));
#1133=CARTESIAN_POINT('',(-16.4127423822715,3.8,8.20436701919842));
#1134=CARTESIAN_POINT('',(-16.8864265927978,2.8,9.08506178397113));
#1135=CARTESIAN_POINT('Origin',(-5.,3.8,0.));
#1136=CARTESIAN_POINT('',(-12.75,3.8,-1.56142466891288E-15));
#1137=CARTESIAN_POINT('Origin',(0.,3.8,0.));
#1138=CARTESIAN_POINT('',(-17.5,3.8,2.));
#1139=CARTESIAN_POINT('',(-20.5,3.8,2.));
#1140=CARTESIAN_POINT('Origin',(-19.,3.8,2.));
#1141=CARTESIAN_POINT('',(-20.5,3.8,-2.));
#1142=CARTESIAN_POINT('',(-20.5,3.8,2.));
#1143=CARTESIAN_POINT('',(-17.5,3.8,-2.));
#1144=CARTESIAN_POINT('Origin',(-19.,3.8,-2.));
#1145=CARTESIAN_POINT('',(-17.5,3.8,-2.));
#1146=CARTESIAN_POINT('',(-15.8473579366328,3.8,4.1936853886163));
#1147=CARTESIAN_POINT('',(-13.2052736423146,3.8,5.61473802019524));
#1148=CARTESIAN_POINT('',(-12.5153687190089,3.8,5.98580536612028));
#1149=CARTESIAN_POINT('',(-14.1526420633673,3.8,7.37612754974067));
#1150=CARTESIAN_POINT('Origin',(-13.6789578528409,3.8,6.49543278496795));
#1151=CARTESIAN_POINT('',(-16.7947263576854,3.8,5.95507491816172));
#1152=CARTESIAN_POINT('',(-12.1416949929025,3.8,8.45772121145518));
#1153=CARTESIAN_POINT('Origin',(-16.3210421471591,3.8,5.074380153389));
#1154=CARTESIAN_POINT('',(-15.8473579366328,3.8,-4.1936853886163));
#1155=CARTESIAN_POINT('',(-16.7947263576854,3.8,-5.95507491816172));
#1156=CARTESIAN_POINT('Origin',(-16.3210421471591,3.8,-5.074380153389));
#1157=CARTESIAN_POINT('',(-14.1526420633673,3.8,-7.37612754974067));
#1158=CARTESIAN_POINT('',(-13.4627371400615,3.8,-7.74719489566571));
#1159=CARTESIAN_POINT('',(-13.2052736423146,3.8,-5.61473802019524));
#1160=CARTESIAN_POINT('Origin',(-13.6789578528409,3.8,-6.49543278496795));
#1161=CARTESIAN_POINT('',(-11.1943265718498,3.8,-6.69633168190976));
#1162=CARTESIAN_POINT('Origin',(-16.3210421471591,0.,-5.074380153389));
#1163=CARTESIAN_POINT('',(-16.7947263576854,1.,-5.95507491816172));
#1164=CARTESIAN_POINT('',(-16.7947263576854,0.,-5.95507491816172));
#1165=CARTESIAN_POINT('',(-15.8473579366328,1.,-4.1936853886163));
#1166=CARTESIAN_POINT('Origin',(-16.3210421471591,1.,-5.074380153389));
#1167=CARTESIAN_POINT('',(-15.8473579366328,0.,-4.1936853886163));
#1168=CARTESIAN_POINT('Origin',(-13.2052736423146,0.,-5.61473802019524));
#1169=CARTESIAN_POINT('',(-13.2052736423146,1.,-5.61473802019524));
#1170=CARTESIAN_POINT('',(-15.8473579366328,1.,-4.1936853886163));
#1171=CARTESIAN_POINT('',(-13.2052736423146,0.,-5.61473802019524));
#1172=CARTESIAN_POINT('Origin',(-13.6789578528409,0.,-6.49543278496795));
#1173=CARTESIAN_POINT('',(-14.1526420633673,1.,-7.37612754974067));
#1174=CARTESIAN_POINT('Origin',(-13.6789578528409,1.,-6.49543278496795));
#1175=CARTESIAN_POINT('',(-14.1526420633673,0.,-7.37612754974067));
#1176=CARTESIAN_POINT('Origin',(-16.7947263576854,0.,-5.95507491816172));
#1177=CARTESIAN_POINT('',(-14.1526420633673,1.,-7.37612754974067));
#1178=CARTESIAN_POINT('Origin',(-15.,1.,-5.78490646917848));
#1179=CARTESIAN_POINT('Origin',(-15.8473579366328,0.,4.1936853886163));
#1180=CARTESIAN_POINT('',(-13.2052736423146,1.,5.61473802019524));
#1181=CARTESIAN_POINT('',(-13.2052736423146,0.,5.61473802019524));
#1182=CARTESIAN_POINT('',(-15.8473579366328,1.,4.1936853886163));
#1183=CARTESIAN_POINT('',(-13.2052736423146,1.,5.61473802019524));
#1184=CARTESIAN_POINT('',(-15.8473579366328,0.,4.1936853886163));
#1185=CARTESIAN_POINT('Origin',(-16.3210421471591,0.,5.074380153389));
#1186=CARTESIAN_POINT('',(-16.7947263576854,1.,5.95507491816172));
#1187=CARTESIAN_POINT('Origin',(-16.3210421471591,1.,5.074380153389));
#1188=CARTESIAN_POINT('',(-16.7947263576854,0.,5.95507491816172));
#1189=CARTESIAN_POINT('Origin',(-14.1526420633673,0.,7.37612754974067));
#1190=CARTESIAN_POINT('',(-14.1526420633673,1.,7.37612754974067));
#1191=CARTESIAN_POINT('',(-16.7947263576854,1.,5.95507491816172));
#1192=CARTESIAN_POINT('',(-14.1526420633673,0.,7.37612754974067));
#1193=CARTESIAN_POINT('Origin',(-13.6789578528409,0.,6.49543278496795));
#1194=CARTESIAN_POINT('Origin',(-13.6789578528409,1.,6.49543278496795));
#1195=CARTESIAN_POINT('Origin',(-15.,1.,5.78490646917848));
#1196=CARTESIAN_POINT('Origin',(-16.3210421471591,3.8,-5.074380153389));
#1197=CARTESIAN_POINT('',(-15.8473579366328,2.8,-4.1936853886163));
#1198=CARTESIAN_POINT('',(-15.8473579366328,3.8,-4.1936853886163));
#1199=CARTESIAN_POINT('',(-16.7947263576854,2.8,-5.95507491816172));
#1200=CARTESIAN_POINT('Origin',(-16.3210421471591,2.8,-5.074380153389));
#1201=CARTESIAN_POINT('',(-16.7947263576854,3.8,-5.95507491816172));
#1202=CARTESIAN_POINT('Origin',(-13.2052736423146,3.8,-5.61473802019524));
#1203=CARTESIAN_POINT('',(-13.2052736423146,2.8,-5.61473802019524));
#1204=CARTESIAN_POINT('',(-13.2052736423146,3.8,-5.61473802019524));
#1205=CARTESIAN_POINT('',(-15.8473579366328,2.8,-4.1936853886163));
#1206=CARTESIAN_POINT('Origin',(-13.6789578528409,3.8,-6.49543278496795));
#1207=CARTESIAN_POINT('',(-14.1526420633673,2.8,-7.37612754974067));
#1208=CARTESIAN_POINT('',(-14.1526420633673,3.8,-7.37612754974067));
#1209=CARTESIAN_POINT('Origin',(-13.6789578528409,2.8,-6.49543278496795));
#1210=CARTESIAN_POINT('Origin',(-16.7947263576854,3.8,-5.95507491816172));
#1211=CARTESIAN_POINT('',(-14.1526420633673,2.8,-7.37612754974067));
#1212=CARTESIAN_POINT('Origin',(-15.,2.8,-5.78490646917848));
#1213=CARTESIAN_POINT('Origin',(-15.8473579366328,3.8,4.1936853886163));
#1214=CARTESIAN_POINT('',(-15.8473579366328,2.8,4.1936853886163));
#1215=CARTESIAN_POINT('',(-15.8473579366328,3.8,4.1936853886163));
#1216=CARTESIAN_POINT('',(-13.2052736423146,2.8,5.61473802019524));
#1217=CARTESIAN_POINT('',(-13.2052736423146,2.8,5.61473802019524));
#1218=CARTESIAN_POINT('',(-13.2052736423146,3.8,5.61473802019524));
#1219=CARTESIAN_POINT('Origin',(-16.3210421471591,3.8,5.074380153389));
#1220=CARTESIAN_POINT('',(-16.7947263576854,2.8,5.95507491816172));
#1221=CARTESIAN_POINT('',(-16.7947263576854,3.8,5.95507491816172));
#1222=CARTESIAN_POINT('Origin',(-16.3210421471591,2.8,5.074380153389));
#1223=CARTESIAN_POINT('Origin',(-14.1526420633673,3.8,7.37612754974067));
#1224=CARTESIAN_POINT('',(-14.1526420633673,2.8,7.37612754974067));
#1225=CARTESIAN_POINT('',(-14.1526420633673,3.8,7.37612754974067));
#1226=CARTESIAN_POINT('',(-16.7947263576854,2.8,5.95507491816172));
#1227=CARTESIAN_POINT('Origin',(-13.6789578528409,3.8,6.49543278496795));
#1228=CARTESIAN_POINT('Origin',(-13.6789578528409,2.8,6.49543278496795));
#1229=CARTESIAN_POINT('Origin',(-15.,2.8,5.78490646917848));
#1230=CARTESIAN_POINT('Origin',(0.,3.8,0.));
#1231=CARTESIAN_POINT('',(11.95,3.8,-1.46345292498109E-15));
#1232=CARTESIAN_POINT('Origin',(0.,3.8,0.));
#1233=CARTESIAN_POINT('',(11.95,3.5,-1.46345292498109E-15));
#1234=CARTESIAN_POINT('',(11.95,3.8,1.46345292498109E-15));
#1235=CARTESIAN_POINT('Origin',(0.,3.5,0.));
#1236=CARTESIAN_POINT('Origin',(0.,3.8,0.));
#1237=CARTESIAN_POINT('',(-12.75,3.5,-1.56142466891288E-15));
#1238=CARTESIAN_POINT('',(-12.75,3.8,-1.56142466891288E-15));
#1239=CARTESIAN_POINT('Origin',(0.,3.5,0.));
#1240=CARTESIAN_POINT('Origin',(0.,3.5,0.));
#1241=CARTESIAN_POINT('Origin',(-17.5,0.,-2.));
#1242=CARTESIAN_POINT('',(-17.5,0.,2.));
#1243=CARTESIAN_POINT('',(-17.5,0.,-2.));
#1244=CARTESIAN_POINT('Origin',(-19.,0.,-2.));
#1245=CARTESIAN_POINT('',(-20.5,0.,-2.));
#1246=CARTESIAN_POINT('Origin',(-20.5,0.,2.));
#1247=CARTESIAN_POINT('',(-20.5,0.,2.));
#1248=CARTESIAN_POINT('Origin',(-19.,0.,2.));
#1249=CARTESIAN_POINT('Origin',(-22.3157894736842,0.,6.16486335340898));
#1250=CARTESIAN_POINT('',(-22.3157894736842,0.,6.16486335340898));
#1251=CARTESIAN_POINT('Origin',(-19.,0.,0.));
#1252=CARTESIAN_POINT('Origin',(-5.,3.8,0.));
#1253=UNCERTAINTY_MEASURE_WITH_UNIT(LENGTH_MEASURE(0.01),#1257,
'DISTANCE_ACCURACY_VALUE',
'Maximum model space distance between geometric entities at asserted c
onnectivities');
#1254=UNCERTAINTY_MEASURE_WITH_UNIT(LENGTH_MEASURE(0.01),#1257,
'DISTANCE_ACCURACY_VALUE',
'Maximum model space distance between geometric entities at asserted c
onnectivities');
#1255=(
GEOMETRIC_REPRESENTATION_CONTEXT(3)
GLOBAL_UNCERTAINTY_ASSIGNED_CONTEXT((#1253))
GLOBAL_UNIT_ASSIGNED_CONTEXT((#1257,#1259,#1260))
REPRESENTATION_CONTEXT('','3D')
);
#1256=(
GEOMETRIC_REPRESENTATION_CONTEXT(3)
GLOBAL_UNCERTAINTY_ASSIGNED_CONTEXT((#1254))
GLOBAL_UNIT_ASSIGNED_CONTEXT((#1257,#1259,#1260))
REPRESENTATION_CONTEXT('','3D')
);
#1257=(
LENGTH_UNIT()
NAMED_UNIT(*)
SI_UNIT(.MILLI.,.METRE.)
);
#1258=(
LENGTH_UNIT()
NAMED_UNIT(*)
SI_UNIT(.CENTI.,.METRE.)
);
#1259=(
NAMED_UNIT(*)
PLANE_ANGLE_UNIT()
SI_UNIT($,.RADIAN.)
);
#1260=(
NAMED_UNIT(*)
SI_UNIT($,.STERADIAN.)
SOLID_ANGLE_UNIT()
);
#1261=SHAPE_DEFINITION_REPRESENTATION(#1262,#1263);
#1262=PRODUCT_DEFINITION_SHAPE('',$,#1265);
#1263=SHAPE_REPRESENTATION('',(#753),#1255);
#1264=PRODUCT_DEFINITION_CONTEXT('part definition',#1269,'design');
#1265=PRODUCT_DEFINITION('Card 2','Card 2',#1266,#1264);
#1266=PRODUCT_DEFINITION_FORMATION('',$,#1271);
#1267=PRODUCT_RELATED_PRODUCT_CATEGORY('Card 2','Card 2',(#1271));
#1268=APPLICATION_PROTOCOL_DEFINITION('international standard',
'automotive_design',2009,#1269);
#1269=APPLICATION_CONTEXT(
'Core Data for Automotive Mechanical Design Process');
#1270=PRODUCT_CONTEXT('part definition',#1269,'mechanical');
#1271=PRODUCT('Card 2','Card 2',$,(#1270));
#1272=PRESENTATION_STYLE_ASSIGNMENT((#1274));
#1273=PRESENTATION_STYLE_ASSIGNMENT((#1275));
#1274=SURFACE_STYLE_USAGE(.BOTH.,#1280);
#1275=SURFACE_STYLE_USAGE(.BOTH.,#1281);
#1276=SURFACE_STYLE_RENDERING_WITH_PROPERTIES($,#1288,(#1278));
#1277=SURFACE_STYLE_RENDERING_WITH_PROPERTIES($,#1289,(#1279));
#1278=SURFACE_STYLE_TRANSPARENT(0.);
#1279=SURFACE_STYLE_TRANSPARENT(0.);
#1280=SURFACE_SIDE_STYLE('',(#1282,#1276));
#1281=SURFACE_SIDE_STYLE('',(#1283,#1277));
#1282=SURFACE_STYLE_FILL_AREA(#1284);
#1283=SURFACE_STYLE_FILL_AREA(#1285);
#1284=FILL_AREA_STYLE('',(#1286));
#1285=FILL_AREA_STYLE('',(#1287));
#1286=FILL_AREA_STYLE_COLOUR('',#1288);
#1287=FILL_AREA_STYLE_COLOUR('',#1289);
#1288=COLOUR_RGB('',0.749019607843137,0.749019607843137,0.749019607843137);
#1289=COLOUR_RGB('',0.0862745098039216,0.352941176470588,0.647058823529412);
ENDSEC;
END-ISO-10303-21;
