ISO-10303-21;
HEADER;
/* Generated by software containing ST-Developer
 * from STEP Tools, Inc. (www.steptools.com) 
 */

FILE_DESCRIPTION(
/* description */ (''),
/* implementation_level */ '2;1');

FILE_NAME(
/* name */ 'Card 1.stp',
/* time_stamp */ '2026-05-13T16:57:14+07:00',
/* author */ ('quang'),
/* organization */ (''),
/* preprocessor_version */ 'ST-DEVELOPER v20',
/* originating_system */ 'Autodesk Inventor 2024',
/* authorisation */ '');

FILE_SCHEMA (('AUTOMOTIVE_DESIGN { 1 0 10303 214 3 1 1 }'));
ENDSEC;

DATA;
#10=MECHANICAL_DESIGN_GEOMETRIC_PRESENTATION_REPRESENTATION('',(#172,#173,
#174,#175,#176,#177,#178,#179,#180,#181,#182),#342);
#11=SHAPE_REPRESENTATION_RELATIONSHIP('SRR','None',#349,#12);
#12=ADVANCED_BREP_SHAPE_REPRESENTATION('',(#13),#341);
#13=MANIFOLD_SOLID_BREP('Solid1',#193);
#14=CIRCLE('',#218,2.99999999999999);
#15=CIRCLE('',#219,2.99999999999999);
#16=CIRCLE('',#222,2.99999999999999);
#17=CIRCLE('',#223,2.99999999999999);
#18=CIRCLE('',#226,2.99999999999998);
#19=CIRCLE('',#227,2.99999999999998);
#20=CIRCLE('',#230,3.00000000000001);
#21=CIRCLE('',#231,3.00000000000001);
#22=CYLINDRICAL_SURFACE('',#217,2.99999999999999);
#23=CYLINDRICAL_SURFACE('',#221,2.99999999999999);
#24=CYLINDRICAL_SURFACE('',#225,2.99999999999998);
#25=CYLINDRICAL_SURFACE('',#229,3.00000000000001);
#26=FACE_OUTER_BOUND('',#36,.T.);
#27=FACE_OUTER_BOUND('',#37,.T.);
#28=FACE_OUTER_BOUND('',#38,.T.);
#29=FACE_OUTER_BOUND('',#39,.T.);
#30=FACE_OUTER_BOUND('',#40,.T.);
#31=FACE_OUTER_BOUND('',#41,.T.);
#32=FACE_OUTER_BOUND('',#42,.T.);
#33=FACE_OUTER_BOUND('',#43,.T.);
#34=FACE_OUTER_BOUND('',#44,.T.);
#35=FACE_OUTER_BOUND('',#45,.T.);
#36=EDGE_LOOP('',(#118,#119,#120,#121));
#37=EDGE_LOOP('',(#122,#123,#124,#125));
#38=EDGE_LOOP('',(#126,#127,#128,#129));
#39=EDGE_LOOP('',(#130,#131,#132,#133));
#40=EDGE_LOOP('',(#134,#135,#136,#137));
#41=EDGE_LOOP('',(#138,#139,#140,#141));
#42=EDGE_LOOP('',(#142,#143,#144,#145));
#43=EDGE_LOOP('',(#146,#147,#148,#149));
#44=EDGE_LOOP('',(#150,#151,#152,#153,#154,#155,#156,#157));
#45=EDGE_LOOP('',(#158,#159,#160,#161,#162,#163,#164,#165));
#46=LINE('',#292,#62);
#47=LINE('',#294,#63);
#48=LINE('',#296,#64);
#49=LINE('',#297,#65);
#50=LINE('',#303,#66);
#51=LINE('',#306,#67);
#52=LINE('',#308,#68);
#53=LINE('',#309,#69);
#54=LINE('',#315,#70);
#55=LINE('',#318,#71);
#56=LINE('',#320,#72);
#57=LINE('',#321,#73);
#58=LINE('',#327,#74);
#59=LINE('',#330,#75);
#60=LINE('',#332,#76);
#61=LINE('',#333,#77);
#62=VECTOR('',#238,10.);
#63=VECTOR('',#239,10.);
#64=VECTOR('',#240,10.);
#65=VECTOR('',#241,10.);
#66=VECTOR('',#248,10.);
#67=VECTOR('',#251,10.);
#68=VECTOR('',#252,10.);
#69=VECTOR('',#253,10.);
#70=VECTOR('',#260,10.);
#71=VECTOR('',#263,10.);
#72=VECTOR('',#264,10.);
#73=VECTOR('',#265,10.);
#74=VECTOR('',#272,10.);
#75=VECTOR('',#275,10.);
#76=VECTOR('',#276,10.);
#77=VECTOR('',#277,10.);
#78=VERTEX_POINT('',#290);
#79=VERTEX_POINT('',#291);
#80=VERTEX_POINT('',#293);
#81=VERTEX_POINT('',#295);
#82=VERTEX_POINT('',#299);
#83=VERTEX_POINT('',#301);
#84=VERTEX_POINT('',#305);
#85=VERTEX_POINT('',#307);
#86=VERTEX_POINT('',#311);
#87=VERTEX_POINT('',#313);
#88=VERTEX_POINT('',#317);
#89=VERTEX_POINT('',#319);
#90=VERTEX_POINT('',#323);
#91=VERTEX_POINT('',#325);
#92=VERTEX_POINT('',#329);
#93=VERTEX_POINT('',#331);
#94=EDGE_CURVE('',#78,#79,#46,.T.);
#95=EDGE_CURVE('',#79,#80,#47,.T.);
#96=EDGE_CURVE('',#81,#80,#48,.T.);
#97=EDGE_CURVE('',#78,#81,#49,.T.);
#98=EDGE_CURVE('',#82,#78,#14,.T.);
#99=EDGE_CURVE('',#83,#81,#15,.T.);
#100=EDGE_CURVE('',#82,#83,#50,.T.);
#101=EDGE_CURVE('',#84,#82,#51,.T.);
#102=EDGE_CURVE('',#85,#83,#52,.T.);
#103=EDGE_CURVE('',#84,#85,#53,.T.);
#104=EDGE_CURVE('',#86,#84,#16,.T.);
#105=EDGE_CURVE('',#87,#85,#17,.T.);
#106=EDGE_CURVE('',#86,#87,#54,.T.);
#107=EDGE_CURVE('',#88,#86,#55,.T.);
#108=EDGE_CURVE('',#89,#87,#56,.T.);
#109=EDGE_CURVE('',#88,#89,#57,.T.);
#110=EDGE_CURVE('',#90,#88,#18,.T.);
#111=EDGE_CURVE('',#91,#89,#19,.T.);
#112=EDGE_CURVE('',#90,#91,#58,.T.);
#113=EDGE_CURVE('',#92,#90,#59,.T.);
#114=EDGE_CURVE('',#93,#91,#60,.T.);
#115=EDGE_CURVE('',#92,#93,#61,.T.);
#116=EDGE_CURVE('',#79,#92,#20,.T.);
#117=EDGE_CURVE('',#80,#93,#21,.T.);
#118=ORIENTED_EDGE('',*,*,#94,.T.);
#119=ORIENTED_EDGE('',*,*,#95,.T.);
#120=ORIENTED_EDGE('',*,*,#96,.F.);
#121=ORIENTED_EDGE('',*,*,#97,.F.);
#122=ORIENTED_EDGE('',*,*,#98,.T.);
#123=ORIENTED_EDGE('',*,*,#97,.T.);
#124=ORIENTED_EDGE('',*,*,#99,.F.);
#125=ORIENTED_EDGE('',*,*,#100,.F.);
#126=ORIENTED_EDGE('',*,*,#101,.T.);
#127=ORIENTED_EDGE('',*,*,#100,.T.);
#128=ORIENTED_EDGE('',*,*,#102,.F.);
#129=ORIENTED_EDGE('',*,*,#103,.F.);
#130=ORIENTED_EDGE('',*,*,#104,.T.);
#131=ORIENTED_EDGE('',*,*,#103,.T.);
#132=ORIENTED_EDGE('',*,*,#105,.F.);
#133=ORIENTED_EDGE('',*,*,#106,.F.);
#134=ORIENTED_EDGE('',*,*,#107,.T.);
#135=ORIENTED_EDGE('',*,*,#106,.T.);
#136=ORIENTED_EDGE('',*,*,#108,.F.);
#137=ORIENTED_EDGE('',*,*,#109,.F.);
#138=ORIENTED_EDGE('',*,*,#110,.T.);
#139=ORIENTED_EDGE('',*,*,#109,.T.);
#140=ORIENTED_EDGE('',*,*,#111,.F.);
#141=ORIENTED_EDGE('',*,*,#112,.F.);
#142=ORIENTED_EDGE('',*,*,#113,.T.);
#143=ORIENTED_EDGE('',*,*,#112,.T.);
#144=ORIENTED_EDGE('',*,*,#114,.F.);
#145=ORIENTED_EDGE('',*,*,#115,.F.);
#146=ORIENTED_EDGE('',*,*,#116,.T.);
#147=ORIENTED_EDGE('',*,*,#115,.T.);
#148=ORIENTED_EDGE('',*,*,#117,.F.);
#149=ORIENTED_EDGE('',*,*,#95,.F.);
#150=ORIENTED_EDGE('',*,*,#117,.T.);
#151=ORIENTED_EDGE('',*,*,#114,.T.);
#152=ORIENTED_EDGE('',*,*,#111,.T.);
#153=ORIENTED_EDGE('',*,*,#108,.T.);
#154=ORIENTED_EDGE('',*,*,#105,.T.);
#155=ORIENTED_EDGE('',*,*,#102,.T.);
#156=ORIENTED_EDGE('',*,*,#99,.T.);
#157=ORIENTED_EDGE('',*,*,#96,.T.);
#158=ORIENTED_EDGE('',*,*,#116,.F.);
#159=ORIENTED_EDGE('',*,*,#94,.F.);
#160=ORIENTED_EDGE('',*,*,#98,.F.);
#161=ORIENTED_EDGE('',*,*,#101,.F.);
#162=ORIENTED_EDGE('',*,*,#104,.F.);
#163=ORIENTED_EDGE('',*,*,#107,.F.);
#164=ORIENTED_EDGE('',*,*,#110,.F.);
#165=ORIENTED_EDGE('',*,*,#113,.F.);
#166=PLANE('',#216);
#167=PLANE('',#220);
#168=PLANE('',#224);
#169=PLANE('',#228);
#170=PLANE('',#232);
#171=PLANE('',#233);
#172=STYLED_ITEM('',(#359),#183);
#173=STYLED_ITEM('',(#359),#184);
#174=STYLED_ITEM('',(#359),#185);
#175=STYLED_ITEM('',(#359),#186);
#176=STYLED_ITEM('',(#359),#187);
#177=STYLED_ITEM('',(#359),#188);
#178=STYLED_ITEM('',(#359),#189);
#179=STYLED_ITEM('',(#359),#190);
#180=STYLED_ITEM('',(#359),#191);
#181=STYLED_ITEM('',(#359),#192);
#182=STYLED_ITEM('',(#358),#13);
#183=ADVANCED_FACE('',(#26),#166,.T.);
#184=ADVANCED_FACE('',(#27),#22,.T.);
#185=ADVANCED_FACE('',(#28),#167,.T.);
#186=ADVANCED_FACE('',(#29),#23,.T.);
#187=ADVANCED_FACE('',(#30),#168,.T.);
#188=ADVANCED_FACE('',(#31),#24,.T.);
#189=ADVANCED_FACE('',(#32),#169,.T.);
#190=ADVANCED_FACE('',(#33),#25,.T.);
#191=ADVANCED_FACE('',(#34),#170,.T.);
#192=ADVANCED_FACE('',(#35),#171,.F.);
#193=CLOSED_SHELL('',(#183,#184,#185,#186,#187,#188,#189,#190,#191,#192));
#194=DERIVED_UNIT_ELEMENT(#197,1.);
#195=DERIVED_UNIT_ELEMENT(#344,-3.);
#196=DIMENSIONAL_EXPONENTS(0.,1.,0.,0.,0.,0.,0.);
#197=(
CONVERSION_BASED_UNIT('gram',#199)
MASS_UNIT()
NAMED_UNIT(#196)
);
#198=(
MASS_UNIT()
NAMED_UNIT(*)
SI_UNIT(.KILO.,.GRAM.)
);
#199=MASS_MEASURE_WITH_UNIT(MASS_MEASURE(0.001),#198);
#200=DERIVED_UNIT((#194,#195));
#201=MEASURE_REPRESENTATION_ITEM('density measure',
POSITIVE_RATIO_MEASURE(1.),#200);
#202=PROPERTY_DEFINITION_REPRESENTATION(#207,#204);
#203=PROPERTY_DEFINITION_REPRESENTATION(#208,#205);
#204=REPRESENTATION('material name',(#206),#341);
#205=REPRESENTATION('density',(#201),#341);
#206=DESCRIPTIVE_REPRESENTATION_ITEM('Generic','Generic');
#207=PROPERTY_DEFINITION('material property','material name',#351);
#208=PROPERTY_DEFINITION('material property','density of part',#351);
#209=DATE_TIME_ROLE('creation_date');
#210=APPLIED_DATE_AND_TIME_ASSIGNMENT(#211,#209,(#351));
#211=DATE_AND_TIME(#212,#213);
#212=CALENDAR_DATE(2026,13,5);
#213=LOCAL_TIME(0,0,0.,#214);
#214=COORDINATED_UNIVERSAL_TIME_OFFSET(0,0,.BEHIND.);
#215=AXIS2_PLACEMENT_3D('',#288,#234,#235);
#216=AXIS2_PLACEMENT_3D('',#289,#236,#237);
#217=AXIS2_PLACEMENT_3D('',#298,#242,#243);
#218=AXIS2_PLACEMENT_3D('',#300,#244,#245);
#219=AXIS2_PLACEMENT_3D('',#302,#246,#247);
#220=AXIS2_PLACEMENT_3D('',#304,#249,#250);
#221=AXIS2_PLACEMENT_3D('',#310,#254,#255);
#222=AXIS2_PLACEMENT_3D('',#312,#256,#257);
#223=AXIS2_PLACEMENT_3D('',#314,#258,#259);
#224=AXIS2_PLACEMENT_3D('',#316,#261,#262);
#225=AXIS2_PLACEMENT_3D('',#322,#266,#267);
#226=AXIS2_PLACEMENT_3D('',#324,#268,#269);
#227=AXIS2_PLACEMENT_3D('',#326,#270,#271);
#228=AXIS2_PLACEMENT_3D('',#328,#273,#274);
#229=AXIS2_PLACEMENT_3D('',#334,#278,#279);
#230=AXIS2_PLACEMENT_3D('',#335,#280,#281);
#231=AXIS2_PLACEMENT_3D('',#336,#282,#283);
#232=AXIS2_PLACEMENT_3D('',#337,#284,#285);
#233=AXIS2_PLACEMENT_3D('',#338,#286,#287);
#234=DIRECTION('axis',(0.,0.,1.));
#235=DIRECTION('refdir',(1.,0.,0.));
#236=DIRECTION('center_axis',(0.,0.,-1.));
#237=DIRECTION('ref_axis',(-1.,0.,0.));
#238=DIRECTION('',(-1.,0.,0.));
#239=DIRECTION('',(0.,1.,0.));
#240=DIRECTION('',(-1.,0.,0.));
#241=DIRECTION('',(0.,1.,0.));
#242=DIRECTION('center_axis',(0.,1.,0.));
#243=DIRECTION('ref_axis',(1.,0.,2.96059473233376E-15));
#244=DIRECTION('center_axis',(0.,1.,0.));
#245=DIRECTION('ref_axis',(1.,0.,2.96059473233376E-15));
#246=DIRECTION('center_axis',(0.,1.,0.));
#247=DIRECTION('ref_axis',(1.,0.,2.96059473233376E-15));
#248=DIRECTION('',(0.,1.,0.));
#249=DIRECTION('center_axis',(1.,0.,-3.70074341541719E-16));
#250=DIRECTION('ref_axis',(-3.70074341541719E-16,0.,-1.));
#251=DIRECTION('',(-3.70074341541719E-16,0.,-1.));
#252=DIRECTION('',(-3.70074341541719E-16,0.,-1.));
#253=DIRECTION('',(0.,1.,0.));
#254=DIRECTION('center_axis',(0.,1.,0.));
#255=DIRECTION('ref_axis',(-4.44089209850064E-15,0.,1.));
#256=DIRECTION('center_axis',(0.,1.,0.));
#257=DIRECTION('ref_axis',(-4.44089209850064E-15,0.,1.));
#258=DIRECTION('center_axis',(0.,1.,0.));
#259=DIRECTION('ref_axis',(-4.44089209850064E-15,0.,1.));
#260=DIRECTION('',(0.,1.,0.));
#261=DIRECTION('center_axis',(1.11580203479915E-16,0.,1.));
#262=DIRECTION('ref_axis',(1.,0.,-1.11580203479915E-16));
#263=DIRECTION('',(1.,0.,-1.11580203479915E-16));
#264=DIRECTION('',(1.,0.,-1.11580203479915E-16));
#265=DIRECTION('',(0.,1.,0.));
#266=DIRECTION('center_axis',(0.,1.,0.));
#267=DIRECTION('ref_axis',(-1.,0.,-2.96059473233377E-15));
#268=DIRECTION('center_axis',(0.,1.,0.));
#269=DIRECTION('ref_axis',(-1.,0.,-2.96059473233377E-15));
#270=DIRECTION('center_axis',(0.,1.,0.));
#271=DIRECTION('ref_axis',(-1.,0.,-2.96059473233377E-15));
#272=DIRECTION('',(0.,1.,0.));
#273=DIRECTION('center_axis',(-1.,0.,1.85037170770859E-16));
#274=DIRECTION('ref_axis',(1.85037170770859E-16,0.,1.));
#275=DIRECTION('',(1.85037170770859E-16,0.,1.));
#276=DIRECTION('',(1.85037170770859E-16,0.,1.));
#277=DIRECTION('',(0.,1.,0.));
#278=DIRECTION('center_axis',(0.,1.,0.));
#279=DIRECTION('ref_axis',(1.48029736616687E-15,0.,-1.));
#280=DIRECTION('center_axis',(0.,1.,0.));
#281=DIRECTION('ref_axis',(1.48029736616687E-15,0.,-1.));
#282=DIRECTION('center_axis',(0.,1.,0.));
#283=DIRECTION('ref_axis',(1.48029736616687E-15,0.,-1.));
#284=DIRECTION('center_axis',(0.,1.,0.));
#285=DIRECTION('ref_axis',(0.,0.,1.));
#286=DIRECTION('center_axis',(0.,1.,0.));
#287=DIRECTION('ref_axis',(0.,0.,1.));
#288=CARTESIAN_POINT('',(0.,0.,0.));
#289=CARTESIAN_POINT('Origin',(39.8,0.,-27.));
#290=CARTESIAN_POINT('',(39.8,0.,-27.));
#291=CARTESIAN_POINT('',(-39.8,0.,-27.));
#292=CARTESIAN_POINT('',(39.8,0.,-27.));
#293=CARTESIAN_POINT('',(-39.8,0.8,-27.));
#294=CARTESIAN_POINT('',(-39.8,0.,-27.));
#295=CARTESIAN_POINT('',(39.8,0.8,-27.));
#296=CARTESIAN_POINT('',(39.8,0.8,-27.));
#297=CARTESIAN_POINT('',(39.8,0.,-27.));
#298=CARTESIAN_POINT('Origin',(39.8,0.,-24.));
#299=CARTESIAN_POINT('',(42.8,0.,-24.));
#300=CARTESIAN_POINT('Origin',(39.8,0.,-24.));
#301=CARTESIAN_POINT('',(42.8,0.8,-24.));
#302=CARTESIAN_POINT('Origin',(39.8,0.8,-24.));
#303=CARTESIAN_POINT('',(42.8,0.,-24.));
#304=CARTESIAN_POINT('Origin',(42.8,0.,24.));
#305=CARTESIAN_POINT('',(42.8,0.,24.));
#306=CARTESIAN_POINT('',(42.8,0.,24.));
#307=CARTESIAN_POINT('',(42.8,0.8,24.));
#308=CARTESIAN_POINT('',(42.8,0.8,24.));
#309=CARTESIAN_POINT('',(42.8,0.,24.));
#310=CARTESIAN_POINT('Origin',(39.8,0.,24.));
#311=CARTESIAN_POINT('',(39.8,0.,27.));
#312=CARTESIAN_POINT('Origin',(39.8,0.,24.));
#313=CARTESIAN_POINT('',(39.8,0.8,27.));
#314=CARTESIAN_POINT('Origin',(39.8,0.8,24.));
#315=CARTESIAN_POINT('',(39.8,0.,27.));
#316=CARTESIAN_POINT('Origin',(-39.8,0.,27.));
#317=CARTESIAN_POINT('',(-39.8,0.,27.));
#318=CARTESIAN_POINT('',(-39.8,0.,27.));
#319=CARTESIAN_POINT('',(-39.8,0.8,27.));
#320=CARTESIAN_POINT('',(-39.8,0.8,27.));
#321=CARTESIAN_POINT('',(-39.8,0.,27.));
#322=CARTESIAN_POINT('Origin',(-39.8,0.,24.));
#323=CARTESIAN_POINT('',(-42.8,0.,24.));
#324=CARTESIAN_POINT('Origin',(-39.8,0.,24.));
#325=CARTESIAN_POINT('',(-42.8,0.8,24.));
#326=CARTESIAN_POINT('Origin',(-39.8,0.8,24.));
#327=CARTESIAN_POINT('',(-42.8,0.,24.));
#328=CARTESIAN_POINT('Origin',(-42.8,0.,-24.));
#329=CARTESIAN_POINT('',(-42.8,0.,-24.));
#330=CARTESIAN_POINT('',(-42.8,0.,-24.));
#331=CARTESIAN_POINT('',(-42.8,0.8,-24.));
#332=CARTESIAN_POINT('',(-42.8,0.8,-24.));
#333=CARTESIAN_POINT('',(-42.8,0.,-24.));
#334=CARTESIAN_POINT('Origin',(-39.8,0.,-24.));
#335=CARTESIAN_POINT('Origin',(-39.8,0.,-24.));
#336=CARTESIAN_POINT('Origin',(-39.8,0.8,-24.));
#337=CARTESIAN_POINT('Origin',(4.44089209850063E-15,0.8,-2.22044604925031E-15));
#338=CARTESIAN_POINT('Origin',(4.44089209850063E-15,0.,-2.22044604925031E-15));
#339=UNCERTAINTY_MEASURE_WITH_UNIT(LENGTH_MEASURE(0.01),#343,
'DISTANCE_ACCURACY_VALUE',
'Maximum model space distance between geometric entities at asserted c
onnectivities');
#340=UNCERTAINTY_MEASURE_WITH_UNIT(LENGTH_MEASURE(0.01),#343,
'DISTANCE_ACCURACY_VALUE',
'Maximum model space distance between geometric entities at asserted c
onnectivities');
#341=(
GEOMETRIC_REPRESENTATION_CONTEXT(3)
GLOBAL_UNCERTAINTY_ASSIGNED_CONTEXT((#339))
GLOBAL_UNIT_ASSIGNED_CONTEXT((#343,#345,#346))
REPRESENTATION_CONTEXT('','3D')
);
#342=(
GEOMETRIC_REPRESENTATION_CONTEXT(3)
GLOBAL_UNCERTAINTY_ASSIGNED_CONTEXT((#340))
GLOBAL_UNIT_ASSIGNED_CONTEXT((#343,#345,#346))
REPRESENTATION_CONTEXT('','3D')
);
#343=(
LENGTH_UNIT()
NAMED_UNIT(*)
SI_UNIT(.MILLI.,.METRE.)
);
#344=(
LENGTH_UNIT()
NAMED_UNIT(*)
SI_UNIT(.CENTI.,.METRE.)
);
#345=(
NAMED_UNIT(*)
PLANE_ANGLE_UNIT()
SI_UNIT($,.RADIAN.)
);
#346=(
NAMED_UNIT(*)
SI_UNIT($,.STERADIAN.)
SOLID_ANGLE_UNIT()
);
#347=SHAPE_DEFINITION_REPRESENTATION(#348,#349);
#348=PRODUCT_DEFINITION_SHAPE('',$,#351);
#349=SHAPE_REPRESENTATION('',(#215),#341);
#350=PRODUCT_DEFINITION_CONTEXT('part definition',#355,'design');
#351=PRODUCT_DEFINITION('Card 1','Card 1',#352,#350);
#352=PRODUCT_DEFINITION_FORMATION('',$,#357);
#353=PRODUCT_RELATED_PRODUCT_CATEGORY('Card 1','Card 1',(#357));
#354=APPLICATION_PROTOCOL_DEFINITION('international standard',
'automotive_design',2009,#355);
#355=APPLICATION_CONTEXT(
'Core Data for Automotive Mechanical Design Process');
#356=PRODUCT_CONTEXT('part definition',#355,'mechanical');
#357=PRODUCT('Card 1','Card 1',$,(#356));
#358=PRESENTATION_STYLE_ASSIGNMENT((#360));
#359=PRESENTATION_STYLE_ASSIGNMENT((#361));
#360=SURFACE_STYLE_USAGE(.BOTH.,#366);
#361=SURFACE_STYLE_USAGE(.BOTH.,#367);
#362=SURFACE_STYLE_RENDERING_WITH_PROPERTIES($,#374,(#364));
#363=SURFACE_STYLE_RENDERING_WITH_PROPERTIES($,#375,(#365));
#364=SURFACE_STYLE_TRANSPARENT(0.);
#365=SURFACE_STYLE_TRANSPARENT(0.);
#366=SURFACE_SIDE_STYLE('',(#368,#362));
#367=SURFACE_SIDE_STYLE('',(#369,#363));
#368=SURFACE_STYLE_FILL_AREA(#370);
#369=SURFACE_STYLE_FILL_AREA(#371);
#370=FILL_AREA_STYLE('',(#372));
#371=FILL_AREA_STYLE('',(#373));
#372=FILL_AREA_STYLE_COLOUR('',#374);
#373=FILL_AREA_STYLE_COLOUR('',#375);
#374=COLOUR_RGB('',0.749019607843137,0.749019607843137,0.749019607843137);
#375=COLOUR_RGB('',0.92156862745098,0.92156862745098,0.92156862745098);
ENDSEC;
END-ISO-10303-21;
